{"glyphs":{"0":{"ha":874,"x_min":0,"x_max":0,"o":"m 438 -14 b 772 493 674 -14 772 138 b 438 1000 772 849 674 1000 b 101 493 200 1000 101 849 b 438 -14 101 138 200 -14 z m 438 35 b 160 493 240 35 160 171 b 438 951 160 815 240 951 b 714 493 633 951 714 815 b 438 35 714 171 633 35 z "},"1":{"ha":525,"x_min":0,"x_max":0,"o":"m 281 986 b 33 865 217 922 118 874 l 33 819 b 267 918 124 828 214 863 l 267 0 l 319 0 l 319 986 z "},"2":{"ha":765,"x_min":0,"x_max":0,"o":"m 165 47 b 674 731 435 269 674 525 b 379 1000 674 908 574 1000 b 85 713 185 1000 85 901 l 143 713 b 379 951 143 869 224 951 b 615 726 535 951 615 875 b 85 40 615 524 371 283 l 85 0 l 685 0 l 685 47 z "},"3":{"ha":800,"x_min":0,"x_max":0,"o":"m 400 -14 b 715 258 608 -14 715 78 b 526 508 715 390 653 476 b 694 740 639 540 694 618 b 400 1000 694 911 594 1000 b 106 713 206 1000 106 901 l 164 713 b 400 951 164 869 244 951 b 636 740 556 951 636 879 b 400 529 636 593 556 529 l 289 529 l 289 485 l 400 485 b 657 258 569 485 657 415 b 400 35 657 111 569 35 b 143 286 231 35 143 121 l 85 286 b 400 -14 85 88 192 -14 z "},"4":{"ha":775,"x_min":0,"x_max":0,"o":"m 539 0 l 593 0 l 593 265 l 760 265 l 760 311 l 593 311 l 593 996 l 547 996 l 26 308 l 26 265 l 539 265 z m 88 311 l 539 914 l 539 311 z "},"5":{"ha":829,"x_min":0,"x_max":0,"o":"m 435 624 b 182 519 322 624 232 588 l 214 942 l 693 942 l 694 986 l 165 986 l 125 464 l 175 464 b 428 576 219 539 304 576 b 700 304 607 576 700 485 b 429 35 700 126 608 35 b 168 251 257 35 168 108 l 114 251 b 429 -14 114 76 221 -14 b 754 304 643 -14 754 94 b 435 624 754 515 644 624 z "},"6":{"ha":811,"x_min":0,"x_max":0,"o":"m 411 -14 b 725 293 619 -14 725 90 b 415 599 725 494 619 599 b 153 457 286 599 196 551 b 429 954 164 818 228 954 b 667 697 585 954 667 868 l 721 697 b 429 1000 721 901 622 1000 b 100 364 181 1000 100 829 b 411 -14 100 100 201 -14 z m 411 32 b 156 333 238 32 156 129 b 411 551 156 464 242 551 b 671 293 585 551 671 464 b 411 32 671 121 583 32 z "},"7":{"ha":671,"x_min":0,"x_max":0,"o":"m 194 0 l 251 0 b 636 947 310 311 438 632 l 636 986 l 40 986 l 40 943 l 578 943 b 194 0 379 621 253 310 z "},"8":{"ha":796,"x_min":0,"x_max":0,"o":"m 399 -14 b 713 258 606 -14 713 78 b 524 508 713 390 650 476 b 692 740 636 540 692 618 b 399 1000 692 911 592 1000 b 104 740 204 1000 104 911 b 272 508 104 618 161 540 b 83 258 147 476 83 390 b 399 -14 83 78 190 -14 z m 399 529 b 164 740 243 529 164 593 b 399 951 164 879 243 951 b 632 740 553 951 632 879 b 399 529 632 593 553 529 z m 399 35 b 143 258 229 35 143 111 b 399 485 143 415 229 485 b 653 258 567 485 653 415 b 399 35 653 111 567 35 z "},"9":{"ha":825,"x_min":0,"x_max":0,"o":"m 397 -14 b 724 633 657 -14 724 136 b 411 1000 724 893 619 1000 b 99 693 204 1000 99 896 b 411 388 99 492 203 388 b 669 528 539 388 628 435 b 397 32 661 157 603 32 b 157 289 235 32 157 118 l 103 289 b 397 -14 103 85 201 -14 z m 411 435 b 153 693 239 435 153 522 b 411 954 153 865 239 954 b 668 653 582 954 668 857 b 411 435 668 522 579 435 z "},"A":{"ha":882,"x_min":0,"x_max":0,"o":"m 769 0 l 826 0 l 475 986 l 404 986 l 54 0 l 111 0 l 213 289 l 668 289 z m 229 336 l 440 939 l 651 336 z "},"Á":{"ha":882,"x_min":0,"x_max":0,"o":"m 588 1301 l 528 1301 l 382 1128 l 426 1128 z m 769 0 l 826 0 l 475 986 l 404 986 l 54 0 l 111 0 l 213 289 l 668 289 z m 229 336 l 440 939 l 651 336 z "},"Ă":{"ha":882,"x_min":0,"x_max":0,"o":"m 442 1122 b 618 1301 551 1122 618 1189 l 576 1301 b 442 1164 576 1215 525 1164 b 307 1301 358 1164 307 1215 l 265 1301 b 442 1122 265 1189 331 1122 z m 769 0 l 826 0 l 475 986 l 404 986 l 54 0 l 111 0 l 213 289 l 668 289 z m 229 336 l 440 939 l 651 336 z "},"Â":{"ha":882,"x_min":0,"x_max":0,"o":"m 442 1265 l 574 1128 l 618 1128 l 465 1307 l 417 1307 l 265 1128 l 310 1128 z m 769 0 l 826 0 l 475 986 l 404 986 l 54 0 l 111 0 l 213 289 l 668 289 z m 229 336 l 440 939 l 651 336 z "},"Ä":{"ha":882,"x_min":0,"x_max":0,"o":"m 350 1293 l 296 1293 l 296 1135 l 350 1135 z m 589 1293 l 533 1293 l 533 1135 l 589 1135 z m 769 0 l 826 0 l 475 986 l 404 986 l 54 0 l 111 0 l 213 289 l 668 289 z m 229 336 l 440 939 l 651 336 z "},"À":{"ha":882,"x_min":0,"x_max":0,"o":"m 506 1128 l 358 1301 l 300 1301 l 461 1128 z m 769 0 l 826 0 l 475 986 l 404 986 l 54 0 l 111 0 l 213 289 l 668 289 z m 229 336 l 440 939 l 651 336 z "},"Ā":{"ha":882,"x_min":0,"x_max":0,"o":"m 639 1233 l 242 1233 l 242 1194 l 639 1194 z m 769 0 l 826 0 l 475 986 l 404 986 l 54 0 l 111 0 l 213 289 l 668 289 z m 229 336 l 440 939 l 651 336 z "},"Ą":{"ha":882,"x_min":0,"x_max":0,"o":"m 747 -217 b 661 -146 696 -217 661 -190 b 826 0 661 -76 728 -18 l 475 986 l 404 986 l 54 0 l 111 0 l 213 289 l 668 289 l 767 10 b 622 -149 678 -17 622 -76 b 742 -251 622 -212 672 -251 b 851 -217 779 -251 822 -239 l 851 -187 b 747 -217 822 -206 782 -217 z m 229 336 l 440 939 l 651 336 z "},"Å":{"ha":882,"x_min":0,"x_max":0,"o":"m 442 1065 b 585 1208 529 1065 585 1122 b 442 1351 585 1296 529 1351 b 297 1208 354 1351 297 1296 b 442 1065 297 1122 354 1065 z m 442 1322 b 551 1208 507 1322 551 1276 b 442 1096 551 1140 507 1097 b 331 1208 375 1097 331 1140 b 442 1322 331 1276 375 1322 z m 769 0 l 826 0 l 475 986 l 404 986 l 54 0 l 111 0 l 213 289 l 668 289 z m 229 336 l 440 939 l 651 336 z "},"Ã":{"ha":882,"x_min":0,"x_max":0,"o":"m 346 1224 b 529 1168 413 1224 454 1168 b 642 1263 588 1168 633 1204 l 611 1263 b 538 1206 604 1229 575 1206 b 353 1263 471 1206 428 1263 b 240 1168 293 1263 247 1225 l 271 1168 b 346 1224 276 1200 308 1224 z m 769 0 l 826 0 l 475 986 l 404 986 l 54 0 l 111 0 l 213 289 l 668 289 z m 229 336 l 440 939 l 651 336 z "},"Æ":{"ha":1346,"x_min":0,"x_max":0,"o":"m 726 47 l 726 485 l 1183 485 l 1183 531 l 726 531 l 726 939 l 1225 939 l 1225 986 l 636 986 l 54 0 l 117 0 l 286 289 l 672 289 l 672 0 l 1239 0 l 1239 47 z m 314 336 l 672 943 l 672 336 z "},"B":{"ha":906,"x_min":0,"x_max":0,"o":"m 626 510 b 778 726 729 542 778 614 b 432 986 778 906 669 986 l 183 986 l 183 0 l 460 0 b 806 275 697 0 806 85 b 626 510 806 401 750 479 z m 721 722 b 496 529 719 589 650 529 l 238 529 l 238 939 l 432 939 b 721 722 632 939 721 872 z m 446 47 l 214 47 l 238 63 l 238 483 l 496 483 b 749 275 669 483 749 419 b 446 47 749 118 656 47 z "},"C":{"ha":1022,"x_min":0,"x_max":0,"o":"m 535 -14 b 928 311 751 -14 896 97 l 871 311 b 535 42 838 132 725 42 b 163 493 297 42 163 204 b 535 949 163 806 279 949 b 864 674 722 949 831 857 l 921 674 b 538 1000 886 889 757 1000 b 103 493 244 1000 103 835 b 535 -14 103 174 263 -14 z "},"Ć":{"ha":1022,"x_min":0,"x_max":0,"o":"m 440 1128 l 485 1128 l 646 1301 l 586 1301 z m 535 -14 b 928 311 751 -14 896 97 l 871 311 b 535 42 838 132 725 42 b 163 493 297 42 163 204 b 535 949 163 806 279 949 b 864 674 722 949 831 857 l 921 674 b 538 1000 886 889 757 1000 b 103 493 244 1000 103 835 b 535 -14 103 174 263 -14 z "},"Č":{"ha":1022,"x_min":0,"x_max":0,"o":"m 475 1128 l 524 1128 l 676 1307 l 632 1307 l 500 1168 l 368 1307 l 324 1307 z m 535 -14 b 928 311 751 -14 896 97 l 871 311 b 535 42 838 132 725 42 b 163 493 297 42 163 204 b 535 949 163 806 279 949 b 864 674 722 949 831 857 l 921 674 b 538 1000 886 889 757 1000 b 103 493 244 1000 103 835 b 535 -14 103 174 263 -14 z "},"Ç":{"ha":1022,"x_min":0,"x_max":0,"o":"m 535 -14 b 928 311 751 -14 896 97 l 871 311 b 535 42 838 132 725 42 b 163 493 297 42 163 204 b 535 949 163 806 279 949 b 864 674 722 949 831 857 l 921 674 b 538 1000 886 889 757 1000 b 103 493 244 1000 103 835 b 478 -11 103 196 240 14 l 443 -86 l 460 -100 b 578 -181 538 -106 578 -133 b 493 -246 578 -225 540 -246 b 374 -193 451 -246 404 -228 l 360 -222 b 490 -278 390 -258 442 -278 b 615 -178 556 -278 615 -247 b 483 -71 615 -117 568 -82 l 513 -14 z "},"Ċ":{"ha":1022,"x_min":0,"x_max":0,"o":"m 474 1135 l 528 1135 l 528 1293 l 474 1293 z m 535 -14 b 928 311 751 -14 896 97 l 871 311 b 535 42 838 132 725 42 b 163 493 297 42 163 204 b 535 949 163 806 279 949 b 864 674 722 949 831 857 l 921 674 b 538 1000 886 889 757 1000 b 103 493 244 1000 103 835 b 535 -14 103 174 263 -14 z "},"D":{"ha":1008,"x_min":0,"x_max":0,"o":"m 471 986 l 183 986 l 183 0 l 467 0 b 906 493 756 0 906 169 b 471 986 906 817 757 986 z m 471 49 l 238 49 l 238 938 l 471 938 b 846 493 722 938 846 790 b 471 49 846 196 722 49 z "},"Ð":{"ha":1015,"x_min":0,"x_max":0,"o":"m 471 986 l 183 986 l 183 517 l -21 517 l -21 478 l 183 478 l 183 0 l 467 0 b 906 493 756 0 906 169 b 471 986 906 817 757 986 z m 471 49 l 238 49 l 238 478 l 540 478 l 540 517 l 238 517 l 238 938 l 471 938 b 846 493 722 938 846 790 b 471 49 846 196 722 49 z "},"Ď":{"ha":1008,"x_min":0,"x_max":0,"o":"m 532 1128 l 685 1307 l 640 1307 l 508 1168 l 376 1307 l 332 1307 l 483 1128 z m 471 986 l 183 986 l 183 0 l 467 0 b 906 493 756 0 906 169 b 471 986 906 817 757 986 z m 471 49 l 238 49 l 238 938 l 471 938 b 846 493 722 938 846 790 b 471 49 846 196 722 49 z "},"Đ":{"ha":1015,"x_min":0,"x_max":0,"o":"m 471 986 l 183 986 l 183 517 l -21 517 l -21 478 l 183 478 l 183 0 l 467 0 b 906 493 756 0 906 169 b 471 986 906 817 757 986 z m 471 49 l 238 49 l 238 478 l 540 478 l 540 517 l 238 517 l 238 938 l 471 938 b 846 493 722 938 846 790 b 471 49 846 196 722 49 z "},"E":{"ha":857,"x_min":0,"x_max":0,"o":"m 183 0 l 750 0 l 750 47 l 238 47 l 238 485 l 694 485 l 694 531 l 238 531 l 238 939 l 736 939 l 736 986 l 183 986 z "},"É":{"ha":857,"x_min":0,"x_max":0,"o":"m 407 1128 l 451 1128 l 613 1301 l 553 1301 z m 183 0 l 750 0 l 750 47 l 238 47 l 238 485 l 694 485 l 694 531 l 238 531 l 238 939 l 736 939 l 736 986 l 183 986 z "},"Ě":{"ha":857,"x_min":0,"x_max":0,"o":"m 442 1128 l 490 1128 l 643 1307 l 599 1307 l 467 1168 l 335 1307 l 290 1307 z m 183 0 l 750 0 l 750 47 l 238 47 l 238 485 l 694 485 l 694 531 l 238 531 l 238 939 l 736 939 l 736 986 l 183 986 z "},"Ê":{"ha":857,"x_min":0,"x_max":0,"o":"m 290 1128 l 335 1128 l 467 1265 l 599 1128 l 643 1128 l 490 1307 l 442 1307 z m 183 0 l 750 0 l 750 47 l 238 47 l 238 485 l 694 485 l 694 531 l 238 531 l 238 939 l 736 939 l 736 986 l 183 986 z "},"Ë":{"ha":857,"x_min":0,"x_max":0,"o":"m 321 1135 l 375 1135 l 375 1293 l 321 1293 z m 558 1135 l 614 1135 l 614 1293 l 558 1293 z m 183 0 l 750 0 l 750 47 l 238 47 l 238 485 l 694 485 l 694 531 l 238 531 l 238 939 l 736 939 l 736 986 l 183 986 z "},"Ė":{"ha":857,"x_min":0,"x_max":0,"o":"m 439 1135 l 493 1135 l 493 1293 l 439 1293 z m 183 0 l 750 0 l 750 47 l 238 47 l 238 485 l 694 485 l 694 531 l 238 531 l 238 939 l 736 939 l 736 986 l 183 986 z "},"È":{"ha":857,"x_min":0,"x_max":0,"o":"m 486 1128 l 531 1128 l 383 1301 l 325 1301 z m 183 0 l 750 0 l 750 47 l 238 47 l 238 485 l 694 485 l 694 531 l 238 531 l 238 939 l 736 939 l 736 986 l 183 986 z "},"Ē":{"ha":857,"x_min":0,"x_max":0,"o":"m 267 1194 l 664 1194 l 664 1233 l 267 1233 z m 183 0 l 750 0 l 750 47 l 238 47 l 238 485 l 694 485 l 694 531 l 238 531 l 238 939 l 736 939 l 736 986 l 183 986 z "},"Ę":{"ha":857,"x_min":0,"x_max":0,"o":"m 671 -217 b 585 -146 619 -217 585 -190 b 750 0 585 -76 651 -18 l 750 47 l 238 47 l 238 485 l 694 485 l 694 531 l 238 531 l 238 939 l 736 939 l 736 986 l 183 986 l 183 0 l 664 0 b 546 -149 590 -29 546 -83 b 665 -251 546 -212 596 -251 b 775 -217 703 -251 746 -239 l 775 -187 b 671 -217 746 -206 706 -217 z "},"F":{"ha":836,"x_min":0,"x_max":0,"o":"m 746 939 l 746 986 l 183 986 l 183 0 l 238 0 l 238 478 l 704 478 l 704 524 l 238 524 l 238 939 z "},"G":{"ha":1040,"x_min":0,"x_max":0,"o":"m 550 500 l 550 454 l 854 454 l 854 429 b 521 38 854 174 744 38 b 163 493 297 38 163 204 b 517 949 163 799 279 949 b 844 674 707 949 817 857 l 901 674 b 521 1000 871 889 742 1000 b 103 493 246 1000 103 828 b 519 -14 103 181 263 -14 b 864 276 710 -14 824 88 l 861 0 l 907 0 l 907 500 z "},"Ğ":{"ha":1040,"x_min":0,"x_max":0,"o":"m 518 1122 b 694 1301 628 1122 694 1189 l 653 1301 b 518 1164 653 1215 601 1164 b 383 1301 435 1164 383 1215 l 342 1301 b 518 1122 342 1189 407 1122 z m 550 500 l 550 454 l 854 454 l 854 429 b 521 38 854 174 744 38 b 163 493 297 38 163 204 b 517 949 163 799 279 949 b 844 674 707 949 817 857 l 901 674 b 521 1000 871 889 742 1000 b 103 493 246 1000 103 828 b 519 -14 103 181 263 -14 b 864 276 710 -14 824 88 l 861 0 l 907 0 l 907 500 z "},"Ģ":{"ha":1040,"x_min":0,"x_max":0,"o":"m 550 500 l 550 454 l 854 454 l 854 429 b 521 38 854 174 744 38 b 163 493 297 38 163 204 b 517 949 163 799 279 949 b 844 674 707 949 817 857 l 901 674 b 521 1000 871 889 742 1000 b 103 493 246 1000 103 828 b 519 -14 103 181 263 -14 b 864 276 710 -14 824 88 l 861 0 l 907 0 l 907 500 z m 488 -251 l 513 -251 l 494 -372 l 518 -372 l 547 -243 l 547 -93 l 489 -93 z "},"Ġ":{"ha":1040,"x_min":0,"x_max":0,"o":"m 544 1293 l 490 1293 l 490 1135 l 544 1135 z m 550 500 l 550 454 l 854 454 l 854 429 b 521 38 854 174 744 38 b 163 493 297 38 163 204 b 517 949 163 799 279 949 b 844 674 707 949 817 857 l 901 674 b 521 1000 871 889 742 1000 b 103 493 246 1000 103 828 b 519 -14 103 181 263 -14 b 864 276 710 -14 824 88 l 861 0 l 907 0 l 907 500 z "},"H":{"ha":1049,"x_min":0,"x_max":0,"o":"m 811 986 l 811 538 l 238 538 l 238 986 l 183 986 l 183 0 l 238 0 l 238 490 l 811 490 l 811 0 l 865 0 l 865 986 z "},"Ħ":{"ha":1049,"x_min":0,"x_max":0,"o":"m 1025 788 l 865 788 l 865 986 l 811 986 l 811 788 l 238 788 l 238 986 l 183 986 l 183 788 l 25 788 l 25 749 l 183 749 l 183 0 l 238 0 l 238 490 l 811 490 l 811 0 l 865 0 l 865 749 l 1025 749 z m 811 538 l 238 538 l 238 749 l 811 749 z "},"I":{"ha":643,"x_min":0,"x_max":0,"o":"m 549 940 l 549 986 l 93 986 l 93 940 l 294 940 l 294 46 l 93 46 l 93 0 l 549 0 l 549 46 l 349 46 l 349 940 z "},"Í":{"ha":643,"x_min":0,"x_max":0,"o":"m 468 1301 l 408 1301 l 263 1128 l 307 1128 z m 549 940 l 549 986 l 93 986 l 93 940 l 294 940 l 294 46 l 93 46 l 93 0 l 549 0 l 549 46 l 349 46 l 349 940 z "},"Î":{"ha":643,"x_min":0,"x_max":0,"o":"m 322 1265 l 454 1128 l 499 1128 l 346 1307 l 297 1307 l 146 1128 l 190 1128 z m 549 940 l 549 986 l 93 986 l 93 940 l 294 940 l 294 46 l 93 46 l 93 0 l 549 0 l 549 46 l 349 46 l 349 940 z "},"Ï":{"ha":643,"x_min":0,"x_max":0,"o":"m 231 1293 l 176 1293 l 176 1135 l 231 1135 z m 469 1293 l 414 1293 l 414 1135 l 469 1135 z m 549 940 l 549 986 l 93 986 l 93 940 l 294 940 l 294 46 l 93 46 l 93 0 l 549 0 l 549 46 l 349 46 l 349 940 z "},"İ":{"ha":643,"x_min":0,"x_max":0,"o":"m 349 1293 l 294 1293 l 294 1135 l 349 1135 z m 549 940 l 549 986 l 93 986 l 93 940 l 294 940 l 294 46 l 93 46 l 93 0 l 549 0 l 549 46 l 349 46 l 349 940 z "},"Ì":{"ha":643,"x_min":0,"x_max":0,"o":"m 386 1128 l 239 1301 l 181 1301 l 342 1128 z m 549 940 l 549 986 l 93 986 l 93 940 l 294 940 l 294 46 l 93 46 l 93 0 l 549 0 l 549 46 l 349 46 l 349 940 z "},"Ī":{"ha":643,"x_min":0,"x_max":0,"o":"m 519 1233 l 122 1233 l 122 1194 l 519 1194 z m 549 940 l 549 986 l 93 986 l 93 940 l 294 940 l 294 46 l 93 46 l 93 0 l 549 0 l 549 46 l 349 46 l 349 940 z "},"Į":{"ha":643,"x_min":0,"x_max":0,"o":"m 469 -217 b 383 -146 418 -217 383 -190 b 549 0 383 -76 450 -18 l 549 46 l 349 46 l 349 940 l 549 940 l 549 986 l 93 986 l 93 940 l 294 940 l 294 46 l 93 46 l 93 0 l 463 0 b 344 -149 389 -29 344 -83 b 464 -251 344 -212 394 -251 b 574 -217 501 -251 544 -239 l 574 -187 b 469 -217 544 -206 504 -217 z "},"J":{"ha":649,"x_min":0,"x_max":0,"o":"m 469 986 l 93 986 l 93 939 l 415 939 l 415 257 b 224 38 415 103 358 38 b 61 60 175 38 106 46 l 61 8 b 224 -14 106 -6 176 -14 b 469 257 393 -14 469 71 z "},"K":{"ha":946,"x_min":0,"x_max":0,"o":"m 915 0 l 471 575 l 878 986 l 808 986 l 238 411 l 238 986 l 183 986 l 183 0 l 238 0 l 238 339 l 433 536 l 849 0 z "},"Ķ":{"ha":946,"x_min":0,"x_max":0,"o":"m 471 575 l 878 986 l 808 986 l 238 411 l 238 986 l 183 986 l 183 0 l 238 0 l 238 339 l 433 536 l 849 0 l 915 0 z m 453 -251 l 478 -251 l 460 -372 l 483 -372 l 513 -243 l 513 -93 l 454 -93 z "},"L":{"ha":751,"x_min":0,"x_max":0,"o":"m 238 47 l 238 986 l 183 986 l 183 0 l 728 0 l 728 47 z "},"Ĺ":{"ha":751,"x_min":0,"x_max":0,"o":"m 356 1301 l 296 1301 l 150 1128 l 194 1128 z m 238 47 l 238 986 l 183 986 l 183 0 l 728 0 l 728 47 z "},"Ľ":{"ha":749,"x_min":0,"x_max":0,"o":"m 238 47 l 238 986 l 183 986 l 183 0 l 728 0 l 728 47 z m 647 986 l 590 986 l 553 719 l 592 719 z "},"Ļ":{"ha":751,"x_min":0,"x_max":0,"o":"m 238 47 l 238 986 l 183 986 l 183 0 l 728 0 l 728 47 z m 353 -251 l 378 -251 l 360 -372 l 383 -372 l 413 -243 l 413 -93 l 354 -93 z "},"Ł":{"ha":749,"x_min":0,"x_max":0,"o":"m 238 47 l 238 449 l 542 575 l 542 619 l 238 493 l 238 986 l 183 986 l 183 469 l 13 399 l 13 354 l 183 425 l 183 0 l 728 0 l 728 47 z "},"M":{"ha":1300,"x_min":0,"x_max":0,"o":"m 175 0 l 228 0 l 282 942 l 610 0 l 692 0 l 1019 942 l 1074 0 l 1126 0 l 1068 986 l 981 986 l 653 46 l 324 986 l 232 986 z "},"N":{"ha":1050,"x_min":0,"x_max":0,"o":"m 183 0 l 238 0 l 238 939 l 775 0 l 868 0 l 868 986 l 813 986 l 813 46 l 275 986 l 183 986 z "},"Ń":{"ha":1050,"x_min":0,"x_max":0,"o":"m 467 1128 l 511 1128 l 672 1301 l 613 1301 z m 183 0 l 238 0 l 238 939 l 775 0 l 868 0 l 868 986 l 813 986 l 813 46 l 275 986 l 183 986 z "},"Ň":{"ha":1050,"x_min":0,"x_max":0,"o":"m 501 1128 l 550 1128 l 703 1307 l 658 1307 l 526 1168 l 394 1307 l 350 1307 z m 183 0 l 238 0 l 238 939 l 775 0 l 868 0 l 868 986 l 813 986 l 813 46 l 275 986 l 183 986 z "},"Ņ":{"ha":1050,"x_min":0,"x_max":0,"o":"m 183 0 l 238 0 l 238 939 l 775 0 l 868 0 l 868 986 l 813 986 l 813 46 l 275 986 l 183 986 z m 503 -372 l 526 -372 l 556 -243 l 556 -93 l 497 -93 l 496 -251 l 521 -251 z "},"Ŋ":{"ha":1050,"x_min":0,"x_max":0,"o":"m 813 986 l 813 99 l 275 986 l 183 986 l 183 0 l 238 0 l 238 939 l 813 -15 b 629 -226 811 -164 756 -226 b 492 -211 589 -226 535 -221 l 492 -260 b 629 -278 535 -271 590 -278 b 868 -7 793 -278 868 -193 l 868 986 z "},"Ñ":{"ha":1050,"x_min":0,"x_max":0,"o":"m 356 1168 b 431 1224 361 1200 393 1224 b 614 1168 497 1224 539 1168 b 726 1263 672 1168 718 1204 l 696 1263 b 622 1206 689 1229 660 1206 b 438 1263 556 1206 513 1263 b 325 1168 378 1263 332 1225 z m 183 0 l 238 0 l 238 939 l 775 0 l 868 0 l 868 986 l 813 986 l 813 46 l 275 986 l 183 986 z "},"O":{"ha":1044,"x_min":0,"x_max":0,"o":"m 522 -14 b 942 493 799 -14 942 158 b 522 1000 942 828 799 1000 b 103 493 246 1000 103 828 b 522 -14 103 158 246 -14 z m 522 38 b 163 493 283 38 163 190 b 522 949 163 796 283 949 b 882 493 761 949 882 796 b 522 38 882 190 761 38 z "},"Ó":{"ha":1044,"x_min":0,"x_max":0,"o":"m 463 1128 l 507 1128 l 668 1301 l 608 1301 z m 522 -14 b 942 493 799 -14 942 158 b 522 1000 942 828 799 1000 b 103 493 246 1000 103 828 b 522 -14 103 158 246 -14 z m 522 38 b 163 493 283 38 163 190 b 522 949 163 796 283 949 b 882 493 761 949 882 796 b 522 38 882 190 761 38 z "},"Ô":{"ha":1044,"x_min":0,"x_max":0,"o":"m 346 1128 l 390 1128 l 522 1265 l 654 1128 l 699 1128 l 546 1307 l 497 1307 z m 522 -14 b 942 493 799 -14 942 158 b 522 1000 942 828 799 1000 b 103 493 246 1000 103 828 b 522 -14 103 158 246 -14 z m 522 38 b 163 493 283 38 163 190 b 522 949 163 796 283 949 b 882 493 761 949 882 796 b 522 38 882 190 761 38 z "},"Ö":{"ha":1044,"x_min":0,"x_max":0,"o":"m 376 1135 l 431 1135 l 431 1293 l 376 1293 z m 614 1135 l 669 1135 l 669 1293 l 614 1293 z m 522 -14 b 942 493 799 -14 942 158 b 522 1000 942 828 799 1000 b 103 493 246 1000 103 828 b 522 -14 103 158 246 -14 z m 522 38 b 163 493 283 38 163 190 b 522 949 163 796 283 949 b 882 493 761 949 882 796 b 522 38 882 190 761 38 z "},"Ò":{"ha":1044,"x_min":0,"x_max":0,"o":"m 542 1128 l 586 1128 l 439 1301 l 381 1301 z m 522 -14 b 942 493 799 -14 942 158 b 522 1000 942 828 799 1000 b 103 493 246 1000 103 828 b 522 -14 103 158 246 -14 z m 522 38 b 163 493 283 38 163 190 b 522 949 163 796 283 949 b 882 493 761 949 882 796 b 522 38 882 190 761 38 z "},"Ő":{"ha":1044,"x_min":0,"x_max":0,"o":"m 397 1128 l 442 1128 l 551 1301 l 492 1301 z m 551 1128 l 596 1128 l 706 1301 l 646 1301 z m 522 -14 b 942 493 799 -14 942 158 b 522 1000 942 828 799 1000 b 103 493 246 1000 103 828 b 522 -14 103 158 246 -14 z m 522 38 b 163 493 283 38 163 190 b 522 949 163 796 283 949 b 882 493 761 949 882 796 b 522 38 882 190 761 38 z "},"Ō":{"ha":1044,"x_min":0,"x_max":0,"o":"m 324 1194 l 721 1194 l 721 1233 l 324 1233 z m 522 -14 b 942 493 799 -14 942 158 b 522 1000 942 828 799 1000 b 103 493 246 1000 103 828 b 522 -14 103 158 246 -14 z m 522 38 b 163 493 283 38 163 190 b 522 949 163 796 283 949 b 882 493 761 949 882 796 b 522 38 882 190 761 38 z "},"Ø":{"ha":1044,"x_min":0,"x_max":0,"o":"m 811 899 l 892 1022 l 835 1022 l 775 929 b 522 1000 710 976 625 1000 b 103 493 246 1000 103 828 b 233 88 103 308 147 172 l 153 -36 l 210 -36 l 269 57 b 522 -14 335 10 419 -14 b 942 493 799 -14 942 158 b 811 899 942 678 897 814 z m 163 493 b 522 949 163 796 283 949 b 744 882 614 949 688 926 l 265 138 b 163 493 197 214 163 332 z m 522 38 b 300 104 431 38 357 60 l 779 849 b 882 493 847 772 882 654 b 522 38 882 190 761 38 z "},"Õ":{"ha":1044,"x_min":0,"x_max":0,"o":"m 351 1168 b 426 1224 357 1200 389 1224 b 610 1168 493 1224 535 1168 b 722 1263 668 1168 714 1204 l 692 1263 b 618 1206 685 1229 656 1206 b 433 1263 551 1206 508 1263 b 321 1168 374 1263 328 1225 z m 522 -14 b 942 493 799 -14 942 158 b 522 1000 942 828 799 1000 b 103 493 246 1000 103 828 b 522 -14 103 158 246 -14 z m 522 38 b 163 493 283 38 163 190 b 522 949 163 796 283 949 b 882 493 761 949 882 796 b 522 38 882 190 761 38 z "},"Œ":{"ha":1557,"x_min":0,"x_max":0,"o":"m 938 47 l 938 485 l 1394 485 l 1394 531 l 938 531 l 938 939 l 1436 939 l 1436 986 l 882 986 l 882 793 b 522 1000 818 931 697 1000 b 103 493 246 1000 103 828 b 522 -14 103 158 246 -14 b 882 193 697 -14 818 56 l 882 0 l 1450 0 l 1450 47 z m 522 38 b 163 493 283 38 163 190 b 522 949 163 796 283 949 b 882 493 761 949 882 796 b 522 38 882 190 761 38 z "},"P":{"ha":890,"x_min":0,"x_max":0,"o":"m 474 986 l 183 986 l 183 0 l 238 0 l 238 375 l 465 375 b 814 681 701 375 814 475 b 474 986 814 888 703 986 z m 461 422 l 238 422 l 238 939 l 469 939 b 756 681 667 939 756 857 b 461 422 756 504 663 422 z "},"Þ":{"ha":876,"x_min":0,"x_max":0,"o":"m 449 807 l 238 807 l 238 986 l 183 986 l 183 0 l 238 0 l 238 196 l 442 196 b 790 501 678 196 790 297 b 449 807 790 708 679 807 z m 438 243 l 238 243 l 238 761 l 446 761 b 732 501 643 761 732 678 b 438 243 732 325 639 243 z "},"Q":{"ha":1061,"x_min":0,"x_max":0,"o":"m 531 -4 b 939 492 799 1 939 172 b 521 1000 939 831 799 1000 b 103 492 243 1000 103 831 b 393 -1 103 221 199 58 l 944 -167 l 958 -122 z m 160 492 b 521 949 160 796 282 949 b 882 492 761 949 882 796 b 521 38 882 189 761 38 b 160 492 282 38 160 189 z "},"R":{"ha":928,"x_min":0,"x_max":0,"o":"m 851 0 l 575 436 b 792 707 724 463 792 550 b 460 986 792 899 689 986 l 183 986 l 183 0 l 238 0 l 238 426 l 460 426 b 518 429 481 426 500 428 l 789 0 z m 457 472 l 238 472 l 238 939 l 457 939 b 733 707 647 939 733 867 b 457 472 733 544 647 472 z "},"Ŕ":{"ha":928,"x_min":0,"x_max":0,"o":"m 610 1301 l 550 1301 l 404 1128 l 449 1128 z m 851 0 l 575 436 b 792 707 724 463 792 550 b 460 986 792 899 689 986 l 183 986 l 183 0 l 238 0 l 238 426 l 460 426 b 518 429 481 426 500 428 l 789 0 z m 457 472 l 238 472 l 238 939 l 457 939 b 733 707 647 939 733 867 b 457 472 733 544 647 472 z "},"Ř":{"ha":928,"x_min":0,"x_max":0,"o":"m 488 1128 l 640 1307 l 596 1307 l 464 1168 l 332 1307 l 288 1307 l 439 1128 z m 851 0 l 575 436 b 792 707 724 463 792 550 b 460 986 792 899 689 986 l 183 986 l 183 0 l 238 0 l 238 426 l 460 426 b 518 429 481 426 500 428 l 789 0 z m 457 472 l 238 472 l 238 939 l 457 939 b 733 707 647 939 733 867 b 457 472 733 544 647 472 z "},"Ŗ":{"ha":928,"x_min":0,"x_max":0,"o":"m 851 0 l 575 436 b 792 707 724 463 792 550 b 460 986 792 899 689 986 l 183 986 l 183 0 l 238 0 l 238 426 l 460 426 b 518 429 481 426 500 428 l 789 0 z m 457 472 l 238 472 l 238 939 l 457 939 b 733 707 647 939 733 867 b 457 472 733 544 647 472 z m 433 -251 l 458 -251 l 440 -372 l 464 -372 l 493 -243 l 493 -93 l 435 -93 z "},"S":{"ha":867,"x_min":0,"x_max":0,"o":"m 436 -14 b 760 246 650 -14 760 75 b 442 533 760 425 621 482 b 174 753 290 576 174 621 b 426 951 174 885 258 951 b 683 711 596 951 683 869 l 742 711 b 428 1000 742 901 633 1000 b 118 749 224 1000 118 914 b 418 486 118 588 249 536 b 704 243 578 440 704 393 b 438 35 704 106 613 35 b 146 311 246 35 146 129 l 90 311 b 436 -14 90 97 207 -14 z "},"Ś":{"ha":867,"x_min":0,"x_max":0,"o":"m 375 1128 l 419 1128 l 581 1301 l 521 1301 z m 436 -14 b 760 246 650 -14 760 75 b 442 533 760 425 621 482 b 174 753 290 576 174 621 b 426 951 174 885 258 951 b 683 711 596 951 683 869 l 742 711 b 428 1000 742 901 633 1000 b 118 749 224 1000 118 914 b 418 486 118 588 249 536 b 704 243 578 440 704 393 b 438 35 704 106 613 35 b 146 311 246 35 146 129 l 90 311 b 436 -14 90 97 207 -14 z "},"Š":{"ha":867,"x_min":0,"x_max":0,"o":"m 410 1128 l 458 1128 l 611 1307 l 567 1307 l 435 1168 l 303 1307 l 258 1307 z m 436 -14 b 760 246 650 -14 760 75 b 442 533 760 425 621 482 b 174 753 290 576 174 621 b 426 951 174 885 258 951 b 683 711 596 951 683 869 l 742 711 b 428 1000 742 901 633 1000 b 118 749 224 1000 118 914 b 418 486 118 588 249 536 b 704 243 578 440 704 393 b 438 35 704 106 613 35 b 146 311 246 35 146 129 l 90 311 b 436 -14 90 97 207 -14 z "},"Ş":{"ha":867,"x_min":0,"x_max":0,"o":"m 760 246 b 442 533 760 425 621 482 b 174 753 290 576 174 621 b 426 951 174 885 258 951 b 683 711 596 951 683 869 l 742 711 b 428 1000 742 901 633 1000 b 118 749 224 1000 118 914 b 418 486 118 588 249 536 b 704 243 578 440 704 393 b 438 35 704 106 613 35 b 146 311 246 35 146 129 l 90 311 b 403 -12 90 108 196 -3 l 368 -86 l 385 -100 b 503 -181 463 -106 503 -133 b 418 -246 503 -225 465 -246 b 299 -193 376 -246 329 -228 l 285 -222 b 415 -278 315 -258 367 -278 b 540 -178 481 -278 540 -247 b 408 -71 540 -117 493 -82 l 438 -14 b 760 246 650 -14 760 75 z "},"Ș":{"ha":867,"x_min":0,"x_max":0,"o":"m 436 -14 b 760 246 650 -14 760 75 b 442 533 760 425 621 482 b 174 753 290 576 174 621 b 426 951 174 885 258 951 b 683 711 596 951 683 869 l 742 711 b 428 1000 742 901 633 1000 b 118 749 224 1000 118 914 b 418 486 118 588 249 536 b 704 243 578 440 704 393 b 438 35 704 106 613 35 b 146 311 246 35 146 129 l 90 311 b 436 -14 90 97 207 -14 z m 403 -372 l 426 -372 l 456 -243 l 456 -93 l 397 -93 l 396 -251 l 421 -251 z "},"T":{"ha":778,"x_min":0,"x_max":0,"o":"m 754 986 l 24 986 l 24 939 l 361 939 l 361 0 l 417 0 l 417 939 l 754 939 z "},"Ŧ":{"ha":778,"x_min":0,"x_max":0,"o":"m 754 939 l 754 986 l 24 986 l 24 939 l 361 939 l 361 524 l 85 524 l 85 485 l 361 485 l 361 0 l 417 0 l 417 485 l 693 485 l 693 524 l 417 524 l 417 939 z "},"Ť":{"ha":778,"x_min":0,"x_max":0,"o":"m 413 1128 l 565 1307 l 521 1307 l 389 1168 l 257 1307 l 213 1307 l 364 1128 z m 754 986 l 24 986 l 24 939 l 361 939 l 361 0 l 417 0 l 417 939 l 754 939 z "},"Ţ":{"ha":778,"x_min":0,"x_max":0,"o":"m 417 0 l 417 939 l 754 939 l 754 986 l 24 986 l 24 939 l 361 939 l 361 0 l 371 0 l 331 -86 l 347 -100 b 465 -181 425 -106 465 -133 b 381 -246 465 -225 428 -246 b 261 -193 339 -246 292 -228 l 247 -222 b 378 -278 278 -258 329 -278 b 503 -178 443 -278 503 -247 b 371 -71 503 -117 456 -82 l 407 0 z "},"Ț":{"ha":778,"x_min":0,"x_max":0,"o":"m 754 986 l 24 986 l 24 939 l 361 939 l 361 0 l 417 0 l 417 939 l 754 939 z m 357 -251 l 382 -251 l 364 -372 l 388 -372 l 417 -243 l 417 -93 l 358 -93 z "},"U":{"ha":1021,"x_min":0,"x_max":0,"o":"m 511 -14 b 851 354 746 -14 851 101 l 851 986 l 797 986 l 797 354 b 511 38 797 135 708 38 b 224 354 313 38 224 135 l 224 986 l 169 986 l 169 354 b 511 -14 169 101 275 -14 z "},"Ú":{"ha":1021,"x_min":0,"x_max":0,"o":"m 451 1128 l 496 1128 l 657 1301 l 597 1301 z m 511 -14 b 851 354 746 -14 851 101 l 851 986 l 797 986 l 797 354 b 511 38 797 135 708 38 b 224 354 313 38 224 135 l 224 986 l 169 986 l 169 354 b 511 -14 169 101 275 -14 z "},"Ǔ":{"ha":1021,"x_min":0,"x_max":0,"o":"m 486 1128 l 535 1128 l 688 1307 l 643 1307 l 511 1168 l 379 1307 l 335 1307 z m 511 -14 b 851 354 746 -14 851 101 l 851 986 l 797 986 l 797 354 b 511 38 797 135 708 38 b 224 354 313 38 224 135 l 224 986 l 169 986 l 169 354 b 511 -14 169 101 275 -14 z "},"Û":{"ha":1021,"x_min":0,"x_max":0,"o":"m 335 1128 l 379 1128 l 511 1265 l 643 1128 l 688 1128 l 535 1307 l 486 1307 z m 511 -14 b 851 354 746 -14 851 101 l 851 986 l 797 986 l 797 354 b 511 38 797 135 708 38 b 224 354 313 38 224 135 l 224 986 l 169 986 l 169 354 b 511 -14 169 101 275 -14 z "},"Ü":{"ha":1021,"x_min":0,"x_max":0,"o":"m 365 1135 l 419 1135 l 419 1293 l 365 1293 z m 603 1135 l 658 1135 l 658 1293 l 603 1293 z m 511 -14 b 851 354 746 -14 851 101 l 851 986 l 797 986 l 797 354 b 511 38 797 135 708 38 b 224 354 313 38 224 135 l 224 986 l 169 986 l 169 354 b 511 -14 169 101 275 -14 z "},"Ù":{"ha":1021,"x_min":0,"x_max":0,"o":"m 531 1128 l 575 1128 l 428 1301 l 369 1301 z m 511 -14 b 851 354 746 -14 851 101 l 851 986 l 797 986 l 797 354 b 511 38 797 135 708 38 b 224 354 313 38 224 135 l 224 986 l 169 986 l 169 354 b 511 -14 169 101 275 -14 z "},"Ű":{"ha":1021,"x_min":0,"x_max":0,"o":"m 386 1128 l 431 1128 l 540 1301 l 481 1301 z m 540 1128 l 585 1128 l 694 1301 l 635 1301 z m 511 -14 b 851 354 746 -14 851 101 l 851 986 l 797 986 l 797 354 b 511 38 797 135 708 38 b 224 354 313 38 224 135 l 224 986 l 169 986 l 169 354 b 511 -14 169 101 275 -14 z "},"Ū":{"ha":1021,"x_min":0,"x_max":0,"o":"m 313 1194 l 710 1194 l 710 1233 l 313 1233 z m 511 -14 b 851 354 746 -14 851 101 l 851 986 l 797 986 l 797 354 b 511 38 797 135 708 38 b 224 354 313 38 224 135 l 224 986 l 169 986 l 169 354 b 511 -14 169 101 275 -14 z "},"Ų":{"ha":1021,"x_min":0,"x_max":0,"o":"m 797 986 l 797 354 b 511 38 797 135 708 38 b 224 354 313 38 224 135 l 224 986 l 169 986 l 169 354 b 511 -14 169 101 275 -14 l 521 -14 b 432 -149 465 -44 432 -93 b 551 -251 432 -212 482 -251 b 661 -217 589 -251 632 -239 l 661 -187 b 557 -217 632 -206 592 -217 b 471 -146 506 -217 471 -190 b 613 -6 471 -82 528 -28 b 851 354 776 26 851 142 l 851 986 z "},"Ů":{"ha":1021,"x_min":0,"x_max":0,"o":"m 511 1065 b 654 1208 599 1065 654 1122 b 511 1351 654 1296 599 1351 b 367 1208 424 1351 367 1296 b 511 1065 367 1122 424 1065 z m 511 1096 b 400 1208 444 1097 400 1140 b 511 1322 400 1276 444 1322 b 621 1208 576 1322 621 1276 b 511 1096 621 1140 576 1097 z m 511 -14 b 851 354 746 -14 851 101 l 851 986 l 797 986 l 797 354 b 511 38 797 135 708 38 b 224 354 313 38 224 135 l 224 986 l 169 986 l 169 354 b 511 -14 169 101 275 -14 z "},"V":{"ha":842,"x_min":0,"x_max":0,"o":"m 381 0 l 458 0 l 807 986 l 751 986 l 422 46 l 94 986 l 35 986 z "},"W":{"ha":1313,"x_min":0,"x_max":0,"o":"m 285 0 l 376 0 l 657 940 l 938 0 l 1028 0 l 1278 986 l 1225 986 l 985 46 l 704 986 l 613 986 l 333 46 l 93 986 l 35 986 z "},"Ẃ":{"ha":1313,"x_min":0,"x_max":0,"o":"m 597 1128 l 642 1128 l 803 1301 l 743 1301 z m 285 0 l 376 0 l 657 940 l 938 0 l 1028 0 l 1278 986 l 1225 986 l 985 46 l 704 986 l 613 986 l 333 46 l 93 986 l 35 986 z "},"Ŵ":{"ha":1313,"x_min":0,"x_max":0,"o":"m 481 1128 l 525 1128 l 657 1265 l 789 1128 l 833 1128 l 681 1307 l 632 1307 z m 285 0 l 376 0 l 657 940 l 938 0 l 1028 0 l 1278 986 l 1225 986 l 985 46 l 704 986 l 613 986 l 333 46 l 93 986 l 35 986 z "},"Ẅ":{"ha":1313,"x_min":0,"x_max":0,"o":"m 511 1135 l 565 1135 l 565 1293 l 511 1293 z m 749 1135 l 804 1135 l 804 1293 l 749 1293 z m 285 0 l 376 0 l 657 940 l 938 0 l 1028 0 l 1278 986 l 1225 986 l 985 46 l 704 986 l 613 986 l 333 46 l 93 986 l 35 986 z "},"Ẁ":{"ha":1313,"x_min":0,"x_max":0,"o":"m 676 1128 l 721 1128 l 574 1301 l 515 1301 z m 285 0 l 376 0 l 657 940 l 938 0 l 1028 0 l 1278 986 l 1225 986 l 985 46 l 704 986 l 613 986 l 333 46 l 93 986 l 35 986 z "},"X":{"ha":885,"x_min":0,"x_max":0,"o":"m 63 0 l 121 0 l 439 460 l 761 0 l 824 0 l 472 503 l 810 986 l 754 986 l 444 546 l 135 986 l 72 986 l 413 501 z "},"Y":{"ha":840,"x_min":0,"x_max":0,"o":"m 815 986 l 757 986 l 424 439 l 89 986 l 24 986 l 394 386 l 394 0 l 450 0 l 450 386 z "},"Ý":{"ha":840,"x_min":0,"x_max":0,"o":"m 567 1301 l 507 1301 l 361 1128 l 406 1128 z m 815 986 l 757 986 l 424 439 l 89 986 l 24 986 l 394 386 l 394 0 l 450 0 l 450 386 z "},"Ŷ":{"ha":840,"x_min":0,"x_max":0,"o":"m 421 1265 l 553 1128 l 597 1128 l 444 1307 l 396 1307 l 244 1128 l 289 1128 z m 815 986 l 757 986 l 424 439 l 89 986 l 24 986 l 394 386 l 394 0 l 450 0 l 450 386 z "},"Ÿ":{"ha":840,"x_min":0,"x_max":0,"o":"m 329 1293 l 275 1293 l 275 1135 l 329 1135 z m 568 1293 l 513 1293 l 513 1135 l 568 1135 z m 815 986 l 757 986 l 424 439 l 89 986 l 24 986 l 394 386 l 394 0 l 450 0 l 450 386 z "},"Ỳ":{"ha":840,"x_min":0,"x_max":0,"o":"m 485 1128 l 338 1301 l 279 1301 l 440 1128 z m 815 986 l 757 986 l 424 439 l 89 986 l 24 986 l 394 386 l 394 0 l 450 0 l 450 386 z "},"Z":{"ha":817,"x_min":0,"x_max":0,"o":"m 135 47 l 722 943 l 722 986 l 85 986 l 85 939 l 657 939 l 71 43 l 71 0 l 746 0 l 746 47 z "},"Ź":{"ha":817,"x_min":0,"x_max":0,"o":"m 556 1301 l 496 1301 l 350 1128 l 394 1128 z m 135 47 l 722 943 l 722 986 l 85 986 l 85 939 l 657 939 l 71 43 l 71 0 l 746 0 l 746 47 z "},"Ž":{"ha":817,"x_min":0,"x_max":0,"o":"m 433 1128 l 586 1307 l 542 1307 l 410 1168 l 278 1307 l 233 1307 l 385 1128 z m 135 47 l 722 943 l 722 986 l 85 986 l 85 939 l 657 939 l 71 43 l 71 0 l 746 0 l 746 47 z "},"Ż":{"ha":817,"x_min":0,"x_max":0,"o":"m 436 1293 l 382 1293 l 382 1135 l 436 1135 z m 135 47 l 722 943 l 722 986 l 85 986 l 85 939 l 657 939 l 71 43 l 71 0 l 746 0 l 746 47 z "},"a":{"ha":825,"x_min":0,"x_max":0,"o":"m 692 0 b 664 232 674 65 664 143 l 664 476 b 399 754 664 660 575 754 b 135 514 244 754 135 672 l 188 514 b 399 708 188 643 278 708 b 611 476 540 708 611 632 l 611 415 l 372 401 b 107 189 196 392 107 325 b 354 -14 107 54 190 -14 b 618 132 492 -14 582 36 b 640 0 622 79 631 35 z m 358 32 b 163 189 228 32 163 88 b 372 363 163 294 233 356 l 611 375 l 611 236 b 358 32 611 106 525 32 z "},"á":{"ha":825,"x_min":0,"x_max":0,"o":"m 547 1056 l 488 1056 l 342 882 l 386 882 z m 692 0 b 664 232 674 65 664 143 l 664 476 b 399 754 664 660 575 754 b 135 514 244 754 135 672 l 188 514 b 399 708 188 643 278 708 b 611 476 540 708 611 632 l 611 415 l 372 401 b 107 189 196 392 107 325 b 354 -14 107 54 190 -14 b 618 132 492 -14 582 36 b 640 0 622 79 631 35 z m 358 32 b 163 189 228 32 163 88 b 372 363 163 294 233 356 l 611 375 l 611 236 b 358 32 611 106 525 32 z "},"ă":{"ha":825,"x_min":0,"x_max":0,"o":"m 401 876 b 578 1056 511 876 578 943 l 536 1056 b 401 918 536 969 485 918 b 267 1056 318 918 267 969 l 225 1056 b 401 876 225 943 290 876 z m 692 0 b 664 232 674 65 664 143 l 664 476 b 399 754 664 660 575 754 b 135 514 244 754 135 672 l 188 514 b 399 708 188 643 278 708 b 611 476 540 708 611 632 l 611 415 l 372 401 b 107 189 196 392 107 325 b 354 -14 107 54 190 -14 b 618 132 492 -14 582 36 b 640 0 622 79 631 35 z m 358 32 b 163 189 228 32 163 88 b 372 363 163 294 233 356 l 611 375 l 611 236 b 358 32 611 106 525 32 z "},"â":{"ha":825,"x_min":0,"x_max":0,"o":"m 401 1019 l 533 882 l 578 882 l 425 1061 l 376 1061 l 225 882 l 269 882 z m 692 0 b 664 232 674 65 664 143 l 664 476 b 399 754 664 660 575 754 b 135 514 244 754 135 672 l 188 514 b 399 708 188 643 278 708 b 611 476 540 708 611 632 l 611 415 l 372 401 b 107 189 196 392 107 325 b 354 -14 107 54 190 -14 b 618 132 492 -14 582 36 b 640 0 622 79 631 35 z m 358 32 b 163 189 228 32 163 88 b 372 363 163 294 233 356 l 611 375 l 611 236 b 358 32 611 106 525 32 z "},"ä":{"ha":825,"x_min":0,"x_max":0,"o":"m 310 1047 l 256 1047 l 256 889 l 310 889 z m 549 1047 l 493 1047 l 493 889 l 549 889 z m 692 0 b 664 232 674 65 664 143 l 664 476 b 399 754 664 660 575 754 b 135 514 244 754 135 672 l 188 514 b 399 708 188 643 278 708 b 611 476 540 708 611 632 l 611 415 l 372 401 b 107 189 196 392 107 325 b 354 -14 107 54 190 -14 b 618 132 492 -14 582 36 b 640 0 622 79 631 35 z m 358 32 b 163 189 228 32 163 88 b 372 363 163 294 233 356 l 611 375 l 611 236 b 358 32 611 106 525 32 z "},"à":{"ha":825,"x_min":0,"x_max":0,"o":"m 467 882 l 319 1056 l 261 1056 l 422 882 z m 692 0 b 664 232 674 65 664 143 l 664 476 b 399 754 664 660 575 754 b 135 514 244 754 135 672 l 188 514 b 399 708 188 643 278 708 b 611 476 540 708 611 632 l 611 415 l 372 401 b 107 189 196 392 107 325 b 354 -14 107 54 190 -14 b 618 132 492 -14 582 36 b 640 0 622 79 631 35 z m 358 32 b 163 189 228 32 163 88 b 372 363 163 294 233 356 l 611 375 l 611 236 b 358 32 611 106 525 32 z "},"ā":{"ha":825,"x_min":0,"x_max":0,"o":"m 600 988 l 203 988 l 203 949 l 600 949 z m 692 0 b 664 232 674 65 664 143 l 664 476 b 399 754 664 660 575 754 b 135 514 244 754 135 672 l 188 514 b 399 708 188 643 278 708 b 611 476 540 708 611 632 l 611 415 l 372 401 b 107 189 196 392 107 325 b 354 -14 107 54 190 -14 b 618 132 492 -14 582 36 b 640 0 622 79 631 35 z m 358 32 b 163 189 228 32 163 88 b 372 363 163 294 233 356 l 611 375 l 611 236 b 358 32 611 106 525 32 z "},"ą":{"ha":825,"x_min":0,"x_max":0,"o":"m 613 -217 b 526 -146 561 -217 526 -190 b 692 0 526 -76 593 -18 b 664 232 674 65 664 143 l 664 476 b 399 754 664 660 575 754 b 135 514 244 754 135 672 l 188 514 b 399 708 188 643 278 708 b 611 476 540 708 611 632 l 611 415 l 372 401 b 107 189 196 392 107 325 b 354 -14 107 54 190 -14 b 618 132 492 -14 582 36 b 638 11 621 85 629 44 b 488 -149 546 -14 488 -75 b 607 -251 488 -212 538 -251 b 717 -217 644 -251 688 -239 l 717 -187 b 613 -217 688 -206 647 -217 z m 358 32 b 163 189 228 32 163 88 b 372 363 163 294 233 356 l 611 375 l 611 236 b 358 32 611 106 525 32 z "},"å":{"ha":825,"x_min":0,"x_max":0,"o":"m 401 819 b 544 963 489 819 544 876 b 401 1106 544 1050 489 1106 b 257 963 314 1106 257 1050 b 401 819 257 876 314 819 z m 401 1076 b 511 963 467 1076 511 1031 b 401 850 511 894 467 851 b 290 963 335 851 290 894 b 401 1076 290 1031 335 1076 z m 692 0 b 664 232 674 65 664 143 l 664 476 b 399 754 664 660 575 754 b 135 514 244 754 135 672 l 188 514 b 399 708 188 643 278 708 b 611 476 540 708 611 632 l 611 415 l 372 401 b 107 189 196 392 107 325 b 354 -14 107 54 190 -14 b 618 132 492 -14 582 36 b 640 0 622 79 631 35 z m 358 32 b 163 189 228 32 163 88 b 372 363 163 294 233 356 l 611 375 l 611 236 b 358 32 611 106 525 32 z "},"ã":{"ha":825,"x_min":0,"x_max":0,"o":"m 306 978 b 489 922 372 978 414 922 b 601 1017 547 922 593 958 l 571 1017 b 497 960 564 983 535 960 b 313 1017 431 960 388 1017 b 200 922 253 1017 207 979 l 231 922 b 306 978 236 954 268 978 z m 692 0 b 664 232 674 65 664 143 l 664 476 b 399 754 664 660 575 754 b 135 514 244 754 135 672 l 188 514 b 399 708 188 643 278 708 b 611 476 540 708 611 632 l 611 415 l 372 401 b 107 189 196 392 107 325 b 354 -14 107 54 190 -14 b 618 132 492 -14 582 36 b 640 0 622 79 631 35 z m 358 32 b 163 189 228 32 163 88 b 372 363 163 294 233 356 l 611 375 l 611 236 b 358 32 611 106 525 32 z "},"æ":{"ha":1328,"x_min":0,"x_max":0,"o":"m 950 29 b 685 360 767 29 689 142 l 1242 360 b 1247 418 1246 383 1247 403 b 951 764 1247 638 1150 764 b 667 575 807 764 713 700 b 408 754 638 693 551 754 b 135 514 231 754 135 668 l 188 514 b 408 708 188 640 265 708 b 631 476 554 708 631 629 l 631 406 l 372 399 b 107 189 196 393 107 321 b 358 -14 107 54 190 -14 b 663 181 531 -14 636 58 b 951 -14 703 51 794 -14 b 1246 239 1126 -14 1219 72 l 1193 239 b 950 29 1169 101 1086 29 z m 950 721 b 1193 401 1118 721 1201 603 l 685 401 b 950 721 692 613 782 721 z m 363 32 b 163 189 228 32 163 85 b 372 360 163 294 233 357 l 631 365 l 631 257 b 363 32 631 115 538 32 z "},"b":{"ha":867,"x_min":0,"x_max":0,"o":"m 486 754 b 218 561 353 754 261 685 l 218 1060 l 165 1060 l 165 0 l 211 0 l 217 189 b 486 -14 260 60 353 -14 b 781 369 675 -14 781 125 b 486 754 781 615 675 754 z m 475 29 b 218 375 310 29 218 151 b 475 711 218 592 310 711 b 725 369 636 711 725 589 b 475 29 725 151 636 29 z "},"c":{"ha":769,"x_min":0,"x_max":0,"o":"m 404 -14 b 694 238 576 -14 668 71 l 642 238 b 401 29 619 100 538 29 b 142 375 217 29 142 147 b 401 721 142 603 217 721 b 638 514 538 721 615 651 l 690 514 b 404 764 667 679 576 764 b 86 375 182 764 86 632 b 404 -14 86 118 182 -14 z "},"ć":{"ha":769,"x_min":0,"x_max":0,"o":"m 322 882 l 367 882 l 528 1056 l 468 1056 z m 404 -14 b 694 238 576 -14 668 71 l 642 238 b 401 29 619 100 538 29 b 142 375 217 29 142 147 b 401 721 142 603 217 721 b 638 514 538 721 615 651 l 690 514 b 404 764 667 679 576 764 b 86 375 182 764 86 632 b 404 -14 86 118 182 -14 z "},"č":{"ha":769,"x_min":0,"x_max":0,"o":"m 357 882 l 406 882 l 558 1061 l 514 1061 l 382 922 l 250 1061 l 206 1061 z m 404 -14 b 694 238 576 -14 668 71 l 642 238 b 401 29 619 100 538 29 b 142 375 217 29 142 147 b 401 721 142 603 217 721 b 638 514 538 721 615 651 l 690 514 b 404 764 667 679 576 764 b 86 375 182 764 86 632 b 404 -14 86 118 182 -14 z "},"ç":{"ha":769,"x_min":0,"x_max":0,"o":"m 694 238 l 642 238 b 401 29 619 100 538 29 b 142 375 217 29 142 147 b 401 721 142 603 217 721 b 638 514 538 721 615 651 l 690 514 b 404 764 667 679 576 764 b 86 375 182 764 86 632 b 382 -14 86 126 176 -6 l 349 -86 l 365 -100 b 483 -181 443 -106 483 -133 b 399 -246 483 -225 446 -246 b 279 -193 357 -246 310 -228 l 265 -222 b 396 -278 296 -258 347 -278 b 521 -178 461 -278 521 -247 b 389 -71 521 -117 474 -82 l 418 -14 b 694 238 582 -10 669 75 z "},"ċ":{"ha":769,"x_min":0,"x_max":0,"o":"m 354 889 l 408 889 l 408 1047 l 354 1047 z m 404 -14 b 694 238 576 -14 668 71 l 642 238 b 401 29 619 100 538 29 b 142 375 217 29 142 147 b 401 721 142 603 217 721 b 638 514 538 721 615 651 l 690 514 b 404 764 667 679 576 764 b 86 375 182 764 86 632 b 404 -14 86 118 182 -14 z "},"d":{"ha":867,"x_min":0,"x_max":0,"o":"m 649 1060 l 649 561 b 381 754 606 685 514 754 b 86 369 192 754 86 615 b 381 -14 86 125 192 -14 b 650 189 514 -14 607 60 l 656 0 l 701 0 l 701 1060 z m 392 29 b 142 369 231 29 142 151 b 392 711 142 589 231 711 b 649 375 557 711 649 592 b 392 29 649 151 557 29 z "},"ð":{"ha":833,"x_min":0,"x_max":0,"o":"m 744 1063 l 721 1096 l 556 969 b 217 1088 476 1047 367 1088 l 217 1040 b 517 939 349 1040 447 1006 l 267 747 l 290 714 l 544 910 b 668 453 629 808 665 651 b 406 599 629 550 539 599 b 96 293 200 599 96 494 b 403 -14 96 90 200 -14 b 714 353 613 -14 707 100 b 583 939 719 619 682 817 z m 406 32 b 150 293 236 32 150 121 b 406 551 150 464 235 551 b 660 333 574 551 660 464 b 406 32 660 129 578 32 z "},"ď":{"ha":867,"x_min":0,"x_max":0,"o":"m 649 561 b 381 754 606 685 514 754 b 86 369 192 754 86 615 b 381 -14 86 125 192 -14 b 650 189 514 -14 607 60 l 656 0 l 701 0 l 701 1060 l 649 1060 z m 865 1060 l 828 792 l 863 792 l 914 1060 z m 392 29 b 142 369 231 29 142 151 b 392 711 142 589 231 711 b 649 375 557 711 649 592 b 392 29 649 151 557 29 z "},"đ":{"ha":867,"x_min":0,"x_max":0,"o":"m 829 896 l 701 896 l 701 1060 l 649 1060 l 649 896 l 297 896 l 297 857 l 649 857 l 649 561 b 381 754 606 685 514 754 b 86 369 192 754 86 615 b 381 -14 86 125 192 -14 b 650 189 514 -14 607 60 l 656 0 l 701 0 l 701 857 l 829 857 z m 392 29 b 142 369 231 29 142 151 b 392 711 142 589 231 711 b 649 375 557 711 649 592 b 392 29 649 151 557 29 z "},"e":{"ha":782,"x_min":0,"x_max":0,"o":"m 404 29 b 139 360 221 29 143 142 l 697 360 b 701 418 700 383 701 403 b 406 758 701 635 614 758 b 86 375 182 758 86 629 b 406 -14 86 118 182 -14 b 700 239 581 -14 674 72 l 647 239 b 404 29 625 101 542 29 z m 404 715 b 647 400 576 715 658 594 l 139 400 b 404 715 144 608 224 715 z "},"é":{"ha":782,"x_min":0,"x_max":0,"o":"m 544 1056 l 485 1056 l 339 882 l 383 882 z m 404 29 b 139 360 221 29 143 142 l 697 360 b 701 418 700 383 701 403 b 406 758 701 635 614 758 b 86 375 182 758 86 629 b 406 -14 86 118 182 -14 b 700 239 581 -14 674 72 l 647 239 b 404 29 625 101 542 29 z m 404 715 b 647 400 576 715 658 594 l 139 400 b 404 715 144 608 224 715 z "},"ě":{"ha":782,"x_min":0,"x_max":0,"o":"m 422 882 l 575 1061 l 531 1061 l 399 922 l 267 1061 l 222 1061 l 374 882 z m 404 29 b 139 360 221 29 143 142 l 697 360 b 701 418 700 383 701 403 b 406 758 701 635 614 758 b 86 375 182 758 86 629 b 406 -14 86 118 182 -14 b 700 239 581 -14 674 72 l 647 239 b 404 29 625 101 542 29 z m 404 715 b 647 400 576 715 658 594 l 139 400 b 404 715 144 608 224 715 z "},"ê":{"ha":782,"x_min":0,"x_max":0,"o":"m 399 1019 l 531 882 l 575 882 l 422 1061 l 374 1061 l 222 882 l 267 882 z m 404 29 b 139 360 221 29 143 142 l 697 360 b 701 418 700 383 701 403 b 406 758 701 635 614 758 b 86 375 182 758 86 629 b 406 -14 86 118 182 -14 b 700 239 581 -14 674 72 l 647 239 b 404 29 625 101 542 29 z m 404 715 b 647 400 576 715 658 594 l 139 400 b 404 715 144 608 224 715 z "},"ë":{"ha":782,"x_min":0,"x_max":0,"o":"m 307 1047 l 253 1047 l 253 889 l 307 889 z m 546 1047 l 490 1047 l 490 889 l 546 889 z m 404 29 b 139 360 221 29 143 142 l 697 360 b 701 418 700 383 701 403 b 406 758 701 635 614 758 b 86 375 182 758 86 629 b 406 -14 86 118 182 -14 b 700 239 581 -14 674 72 l 647 239 b 404 29 625 101 542 29 z m 404 715 b 647 400 576 715 658 594 l 139 400 b 404 715 144 608 224 715 z "},"ė":{"ha":782,"x_min":0,"x_max":0,"o":"m 425 1047 l 371 1047 l 371 889 l 425 889 z m 404 29 b 139 360 221 29 143 142 l 697 360 b 701 418 700 383 701 403 b 406 758 701 635 614 758 b 86 375 182 758 86 629 b 406 -14 86 118 182 -14 b 700 239 581 -14 674 72 l 647 239 b 404 29 625 101 542 29 z m 404 715 b 647 400 576 715 658 594 l 139 400 b 404 715 144 608 224 715 z "},"è":{"ha":782,"x_min":0,"x_max":0,"o":"m 463 882 l 315 1056 l 257 1056 l 418 882 z m 404 29 b 139 360 221 29 143 142 l 697 360 b 701 418 700 383 701 403 b 406 758 701 635 614 758 b 86 375 182 758 86 629 b 406 -14 86 118 182 -14 b 700 239 581 -14 674 72 l 647 239 b 404 29 625 101 542 29 z m 404 715 b 647 400 576 715 658 594 l 139 400 b 404 715 144 608 224 715 z "},"ē":{"ha":782,"x_min":0,"x_max":0,"o":"m 596 988 l 199 988 l 199 949 l 596 949 z m 404 29 b 139 360 221 29 143 142 l 697 360 b 701 418 700 383 701 403 b 406 758 701 635 614 758 b 86 375 182 758 86 629 b 406 -14 86 118 182 -14 b 700 239 581 -14 674 72 l 647 239 b 404 29 625 101 542 29 z m 404 715 b 647 400 576 715 658 594 l 139 400 b 404 715 144 608 224 715 z "},"ę":{"ha":782,"x_min":0,"x_max":0,"o":"m 404 29 b 139 360 221 29 143 142 l 697 360 b 701 418 700 383 701 403 b 406 758 701 635 614 758 b 86 375 182 758 86 629 b 399 -14 86 121 181 -11 b 310 -149 343 -44 310 -93 b 429 -251 310 -212 360 -251 b 539 -217 467 -251 510 -239 l 539 -187 b 435 -217 510 -206 469 -217 b 349 -146 383 -217 349 -190 b 482 -7 349 -85 401 -31 b 700 239 608 15 678 99 l 647 239 b 404 29 625 101 542 29 z m 404 715 b 647 400 576 715 658 594 l 139 400 b 404 715 144 608 224 715 z "},"f":{"ha":483,"x_min":0,"x_max":0,"o":"m 379 1040 b 506 1013 414 1040 458 1031 l 506 1060 b 378 1088 463 1078 418 1088 b 169 865 244 1088 169 1008 l 169 740 l 38 740 l 38 697 l 169 697 l 169 0 l 222 0 l 222 697 l 460 697 l 460 740 l 222 740 l 222 865 b 379 1040 222 979 276 1040 z "},"g":{"ha":865,"x_min":0,"x_max":0,"o":"m 665 740 l 661 553 b 404 754 622 681 536 754 b 86 369 200 754 86 624 b 404 -14 86 117 200 -14 b 660 183 535 -14 621 58 l 660 29 b 404 -232 660 -150 578 -232 b 178 -76 282 -232 196 -172 l 124 -76 b 404 -278 139 -203 240 -278 b 713 29 617 -278 713 -182 l 713 740 z m 408 32 b 142 369 238 32 142 147 b 408 708 142 593 238 708 b 660 369 575 708 660 578 b 408 32 660 163 575 32 z "},"ğ":{"ha":865,"x_min":0,"x_max":0,"o":"m 422 876 b 599 1056 532 876 599 943 l 557 1056 b 422 918 557 969 506 918 b 288 1056 339 918 288 969 l 246 1056 b 422 876 246 943 311 876 z m 665 740 l 661 553 b 404 754 622 681 536 754 b 86 369 200 754 86 624 b 404 -14 86 117 200 -14 b 660 183 535 -14 621 58 l 660 29 b 404 -232 660 -150 578 -232 b 178 -76 282 -232 196 -172 l 124 -76 b 404 -278 139 -203 240 -278 b 713 29 617 -278 713 -182 l 713 740 z m 408 32 b 142 369 238 32 142 147 b 408 708 142 593 238 708 b 660 369 575 708 660 578 b 408 32 660 163 575 32 z "},"ģ":{"ha":865,"x_min":0,"x_max":0,"o":"m 451 1047 l 426 1047 l 443 1168 l 419 1168 l 392 1039 l 392 889 l 450 889 z m 665 740 l 661 553 b 404 754 622 681 536 754 b 86 369 200 754 86 624 b 404 -14 86 117 200 -14 b 660 183 535 -14 621 58 l 660 29 b 404 -232 660 -150 578 -232 b 178 -76 282 -232 196 -172 l 124 -76 b 404 -278 139 -203 240 -278 b 713 29 617 -278 713 -182 l 713 740 z m 408 32 b 142 369 238 32 142 147 b 408 708 142 593 238 708 b 660 369 575 708 660 578 b 408 32 660 163 575 32 z "},"ġ":{"ha":865,"x_min":0,"x_max":0,"o":"m 450 1047 l 396 1047 l 396 889 l 450 889 z m 665 740 l 661 553 b 404 754 622 681 536 754 b 86 369 200 754 86 624 b 404 -14 86 117 200 -14 b 660 183 535 -14 621 58 l 660 29 b 404 -232 660 -150 578 -232 b 178 -76 282 -232 196 -172 l 124 -76 b 404 -278 139 -203 240 -278 b 713 29 617 -278 713 -182 l 713 740 z m 408 32 b 142 369 238 32 142 147 b 408 708 142 593 238 708 b 660 369 575 708 660 578 b 408 32 660 163 575 32 z "},"h":{"ha":860,"x_min":0,"x_max":0,"o":"m 475 754 b 218 531 357 754 254 672 l 218 1060 l 165 1060 l 165 0 l 218 0 l 218 346 b 467 708 218 540 301 708 b 664 479 594 708 664 640 l 664 0 l 717 0 l 717 483 b 475 754 717 669 632 754 z "},"ħ":{"ha":860,"x_min":0,"x_max":0,"o":"m 475 754 b 218 531 357 754 254 672 l 218 857 l 569 857 l 569 896 l 218 896 l 218 1060 l 165 1060 l 165 896 l 38 896 l 38 857 l 165 857 l 165 0 l 218 0 l 218 346 b 467 708 218 540 301 708 b 664 479 594 708 664 640 l 664 0 l 717 0 l 717 483 b 475 754 717 669 632 754 z "},"i":{"ha":390,"x_min":0,"x_max":0,"o":"m 168 889 l 222 889 l 222 1047 l 168 1047 z m 169 0 l 222 0 l 222 740 l 169 740 z "},"ı":{"ha":390,"x_min":0,"x_max":0,"o":"m 169 0 l 222 0 l 222 740 l 169 740 z "},"í":{"ha":390,"x_min":0,"x_max":0,"o":"m 135 882 l 179 882 l 340 1056 l 281 1056 z m 169 0 l 222 0 l 222 740 l 169 740 z "},"î":{"ha":390,"x_min":0,"x_max":0,"o":"m 19 882 l 64 882 l 196 1019 l 328 882 l 372 882 l 219 1061 l 171 1061 z m 169 0 l 222 0 l 222 740 l 169 740 z "},"ï":{"ha":390,"x_min":0,"x_max":0,"o":"m 49 889 l 103 889 l 103 1047 l 49 1047 z m 286 889 l 342 889 l 342 1047 l 286 1047 z m 169 0 l 222 0 l 222 740 l 169 740 z "},"ì":{"ha":390,"x_min":0,"x_max":0,"o":"m 215 882 l 260 882 l 113 1056 l 54 1056 z m 169 0 l 222 0 l 222 740 l 169 740 z "},"ī":{"ha":390,"x_min":0,"x_max":0,"o":"m -4 949 l 393 949 l 393 988 l -4 988 z m 169 0 l 222 0 l 222 740 l 169 740 z "},"į":{"ha":390,"x_min":0,"x_max":0,"o":"m 222 1047 l 168 1047 l 168 889 l 222 889 z m 142 -217 b 56 -146 90 -217 56 -190 b 221 0 56 -76 122 -18 l 222 0 l 222 740 l 169 740 l 169 11 b 17 -149 76 -12 17 -74 b 136 -251 17 -212 67 -251 b 246 -217 174 -251 217 -239 l 246 -187 b 142 -217 217 -206 176 -217 z "},"j":{"ha":390,"x_min":0,"x_max":0,"o":"m 179 889 l 233 889 l 233 1047 l 179 1047 z m 67 -278 b 232 -86 167 -278 232 -204 l 232 740 l 178 740 l 178 -86 b 64 -233 178 -178 133 -233 b -35 -218 32 -233 -6 -228 l -35 -262 b 67 -278 -6 -272 32 -278 z "},"ȷ":{"ha":390,"x_min":0,"x_max":0,"o":"m 67 -278 b 232 -86 167 -278 232 -204 l 232 740 l 178 740 l 178 -86 b 64 -233 178 -178 133 -233 b -35 -218 32 -233 -6 -228 l -35 -262 b 67 -278 -6 -272 32 -278 z "},"k":{"ha":796,"x_min":0,"x_max":0,"o":"m 711 0 l 772 0 l 394 450 l 732 740 l 664 740 l 233 369 l 233 1060 l 179 1060 l 179 0 l 233 0 l 233 310 l 358 418 z "},"ķ":{"ha":796,"x_min":0,"x_max":0,"o":"m 394 450 l 732 740 l 664 740 l 233 369 l 233 1060 l 179 1060 l 179 0 l 233 0 l 233 310 l 358 418 l 711 0 l 772 0 z m 378 -251 l 403 -251 l 385 -372 l 408 -372 l 438 -243 l 438 -93 l 379 -93 z "},"l":{"ha":383,"x_min":0,"x_max":0,"o":"m 165 0 l 218 0 l 218 1060 l 165 1060 z "},"ĺ":{"ha":383,"x_min":0,"x_max":0,"o":"m 133 1151 l 178 1151 l 339 1325 l 279 1325 z m 165 0 l 218 0 l 218 1060 l 165 1060 z "},"ľ":{"ha":383,"x_min":0,"x_max":0,"o":"m 165 0 l 218 0 l 218 1060 l 165 1060 z m 343 792 l 379 792 l 429 1060 l 381 1060 z "},"ļ":{"ha":383,"x_min":0,"x_max":0,"o":"m 165 0 l 218 0 l 218 1060 l 165 1060 z m 169 -372 l 193 -372 l 222 -243 l 222 -93 l 164 -93 l 163 -251 l 188 -251 z "},"ł":{"ha":383,"x_min":0,"x_max":0,"o":"m 383 583 l 218 514 l 218 1060 l 165 1060 l 165 492 l 0 422 l 0 379 l 165 449 l 165 0 l 218 0 l 218 469 l 383 539 z "},"m":{"ha":1360,"x_min":0,"x_max":0,"o":"m 976 754 b 718 528 857 754 754 671 b 478 754 704 683 621 754 b 221 533 360 754 257 672 l 214 740 l 167 740 l 167 0 l 221 0 l 221 346 b 468 708 221 540 303 708 b 665 479 596 708 665 640 l 665 0 l 719 0 l 719 346 b 967 708 719 540 801 708 b 1164 479 1094 708 1164 640 l 1164 0 l 1218 0 l 1218 483 b 976 754 1218 669 1132 754 z "},"n":{"ha":861,"x_min":0,"x_max":0,"o":"m 478 754 b 221 533 360 754 257 672 l 214 740 l 167 740 l 167 0 l 221 0 l 221 346 b 468 708 221 540 303 708 b 665 479 596 708 665 640 l 665 0 l 719 0 l 719 483 b 478 754 719 669 633 754 z "},"ń":{"ha":861,"x_min":0,"x_max":0,"o":"m 590 1056 l 531 1056 l 385 882 l 429 882 z m 478 754 b 221 533 360 754 257 672 l 214 740 l 167 740 l 167 0 l 221 0 l 221 346 b 468 708 221 540 303 708 b 665 479 596 708 665 640 l 665 0 l 719 0 l 719 483 b 478 754 719 669 633 754 z "},"ň":{"ha":861,"x_min":0,"x_max":0,"o":"m 468 882 l 621 1061 l 576 1061 l 444 922 l 313 1061 l 268 1061 l 419 882 z m 478 754 b 221 533 360 754 257 672 l 214 740 l 167 740 l 167 0 l 221 0 l 221 346 b 468 708 221 540 303 708 b 665 479 596 708 665 640 l 665 0 l 719 0 l 719 483 b 478 754 719 669 633 754 z "},"ņ":{"ha":861,"x_min":0,"x_max":0,"o":"m 478 754 b 221 533 360 754 257 672 l 214 740 l 167 740 l 167 0 l 221 0 l 221 346 b 468 708 221 540 303 708 b 665 479 596 708 665 640 l 665 0 l 719 0 l 719 483 b 478 754 719 669 633 754 z m 400 -251 l 425 -251 l 407 -372 l 431 -372 l 460 -243 l 460 -93 l 401 -93 z "},"ŋ":{"ha":861,"x_min":0,"x_max":0,"o":"m 478 754 b 221 533 360 754 257 672 l 214 740 l 167 740 l 167 0 l 221 0 l 221 346 b 468 708 221 540 303 708 b 665 479 596 708 665 640 l 665 -86 b 550 -232 665 -178 621 -232 b 451 -214 521 -232 483 -225 l 451 -262 b 553 -278 482 -272 519 -278 b 719 -86 653 -278 719 -204 l 719 483 b 478 754 719 669 633 754 z "},"ñ":{"ha":861,"x_min":0,"x_max":0,"o":"m 349 978 b 532 922 415 978 457 922 b 644 1017 590 922 636 958 l 614 1017 b 540 960 607 983 578 960 b 356 1017 474 960 431 1017 b 243 922 296 1017 250 979 l 274 922 b 349 978 279 954 311 978 z m 478 754 b 221 533 360 754 257 672 l 214 740 l 167 740 l 167 0 l 221 0 l 221 346 b 468 708 221 540 303 708 b 665 479 596 708 665 640 l 665 0 l 719 0 l 719 483 b 478 754 719 669 633 754 z "},"o":{"ha":810,"x_min":0,"x_max":0,"o":"m 406 -14 b 724 369 615 -14 724 117 b 406 754 724 624 615 754 b 86 369 194 754 86 624 b 406 -14 86 117 194 -14 z m 406 29 b 142 369 232 29 142 144 b 406 711 142 596 232 711 b 668 369 579 711 668 596 b 406 29 668 144 579 29 z "},"ó":{"ha":810,"x_min":0,"x_max":0,"o":"m 346 882 l 390 882 l 551 1056 l 492 1056 z m 406 -14 b 724 369 615 -14 724 117 b 406 754 724 624 615 754 b 86 369 194 754 86 624 b 406 -14 86 117 194 -14 z m 406 29 b 142 369 232 29 142 144 b 406 711 142 596 232 711 b 668 369 579 711 668 596 b 406 29 668 144 579 29 z "},"ô":{"ha":810,"x_min":0,"x_max":0,"o":"m 229 882 l 274 882 l 406 1019 l 538 882 l 582 882 l 429 1061 l 381 1061 z m 406 -14 b 724 369 615 -14 724 117 b 406 754 724 624 615 754 b 86 369 194 754 86 624 b 406 -14 86 117 194 -14 z m 406 29 b 142 369 232 29 142 144 b 406 711 142 596 232 711 b 668 369 579 711 668 596 b 406 29 668 144 579 29 z "},"ö":{"ha":810,"x_min":0,"x_max":0,"o":"m 260 889 l 314 889 l 314 1047 l 260 1047 z m 497 889 l 553 889 l 553 1047 l 497 1047 z m 406 -14 b 724 369 615 -14 724 117 b 406 754 724 624 615 754 b 86 369 194 754 86 624 b 406 -14 86 117 194 -14 z m 406 29 b 142 369 232 29 142 144 b 406 711 142 596 232 711 b 668 369 579 711 668 596 b 406 29 668 144 579 29 z "},"ò":{"ha":810,"x_min":0,"x_max":0,"o":"m 425 882 l 469 882 l 322 1056 l 264 1056 z m 406 -14 b 724 369 615 -14 724 117 b 406 754 724 624 615 754 b 86 369 194 754 86 624 b 406 -14 86 117 194 -14 z m 406 29 b 142 369 232 29 142 144 b 406 711 142 596 232 711 b 668 369 579 711 668 596 b 406 29 668 144 579 29 z "},"ő":{"ha":810,"x_min":0,"x_max":0,"o":"m 281 882 l 325 882 l 435 1056 l 375 1056 z m 435 882 l 479 882 l 589 1056 l 529 1056 z m 406 -14 b 724 369 615 -14 724 117 b 406 754 724 624 615 754 b 86 369 194 754 86 624 b 406 -14 86 117 194 -14 z m 406 29 b 142 369 232 29 142 144 b 406 711 142 596 232 711 b 668 369 579 711 668 596 b 406 29 668 144 579 29 z "},"ō":{"ha":810,"x_min":0,"x_max":0,"o":"m 207 949 l 604 949 l 604 988 l 207 988 z m 406 -14 b 724 369 615 -14 724 117 b 406 754 724 624 615 754 b 86 369 194 754 86 624 b 406 -14 86 117 194 -14 z m 406 29 b 142 369 232 29 142 144 b 406 711 142 596 232 711 b 668 369 579 711 668 596 b 406 29 668 144 579 29 z "},"ø":{"ha":810,"x_min":0,"x_max":0,"o":"m 631 672 l 710 793 l 658 793 l 597 700 b 406 754 547 736 483 754 b 86 369 194 754 86 624 b 181 67 86 232 118 131 l 101 -54 l 151 -54 l 214 40 b 406 -14 263 4 328 -14 b 724 369 615 -14 724 117 b 631 672 724 507 692 608 z m 142 369 b 406 711 142 596 232 711 b 569 658 474 711 528 693 l 211 113 b 142 369 165 169 142 256 z m 406 29 b 240 82 338 29 283 47 l 600 628 b 668 369 646 569 668 483 b 406 29 668 144 579 29 z "},"õ":{"ha":810,"x_min":0,"x_max":0,"o":"m 235 922 b 310 978 240 954 272 978 b 493 922 376 978 418 922 b 606 1017 551 922 597 958 l 575 1017 b 501 960 568 983 539 960 b 317 1017 435 960 392 1017 b 204 922 257 1017 211 979 z m 406 -14 b 724 369 615 -14 724 117 b 406 754 724 624 615 754 b 86 369 194 754 86 624 b 406 -14 86 117 194 -14 z m 406 29 b 142 369 232 29 142 144 b 406 711 142 596 232 711 b 668 369 579 711 668 596 b 406 29 668 144 579 29 z "},"œ":{"ha":1364,"x_min":0,"x_max":0,"o":"m 986 29 b 721 360 803 29 725 142 l 1279 360 b 1283 418 1282 383 1283 403 b 989 758 1283 635 1196 758 b 693 561 829 758 735 692 b 406 754 650 689 553 754 b 86 369 194 754 86 624 b 406 -14 86 117 194 -14 b 694 182 554 -14 651 53 b 989 -14 736 53 831 -14 b 1283 239 1164 -14 1257 72 l 1229 239 b 986 29 1207 101 1124 29 z m 986 715 b 1231 400 1158 715 1239 599 l 721 400 b 986 715 726 608 806 715 z m 406 29 b 142 369 232 29 142 144 b 406 711 142 596 232 711 b 668 369 579 711 668 596 b 406 29 668 144 579 29 z "},"p":{"ha":869,"x_min":0,"x_max":0,"o":"m 489 754 b 219 557 356 754 263 683 l 214 740 l 167 740 l 167 -278 l 221 -278 l 221 185 b 489 -14 264 58 356 -14 b 782 369 676 -14 782 125 b 489 754 782 615 676 754 z m 476 29 b 221 375 311 29 221 151 b 476 711 221 592 311 711 b 726 369 638 711 726 589 b 476 29 726 151 638 29 z "},"þ":{"ha":869,"x_min":0,"x_max":0,"o":"m 489 754 b 221 561 356 754 264 685 l 221 1060 l 167 1060 l 167 -278 l 221 -278 l 221 185 b 489 -14 264 58 356 -14 b 782 369 676 -14 782 125 b 489 754 782 615 676 754 z m 476 29 b 221 375 311 29 221 151 b 476 711 221 592 311 711 b 726 369 638 711 726 589 b 476 29 726 151 638 29 z "},"q":{"ha":867,"x_min":0,"x_max":0,"o":"m 656 740 l 650 557 b 381 754 607 683 514 754 b 86 369 192 754 86 615 b 381 -14 86 125 192 -14 b 649 185 514 -14 606 58 l 649 -278 l 701 -278 l 701 740 z m 392 29 b 142 369 231 29 142 151 b 392 711 142 589 231 711 b 649 375 557 711 649 592 b 392 29 649 151 557 29 z "},"r":{"ha":546,"x_min":0,"x_max":0,"o":"m 431 754 b 217 542 313 754 242 671 l 214 740 l 167 740 l 167 0 l 221 0 l 221 346 b 419 707 221 504 250 707 b 524 689 456 707 489 700 l 524 736 b 431 754 494 747 461 754 z "},"ŕ":{"ha":546,"x_min":0,"x_max":0,"o":"m 475 1056 l 415 1056 l 269 882 l 314 882 z m 431 754 b 217 542 313 754 242 671 l 214 740 l 167 740 l 167 0 l 221 0 l 221 346 b 419 707 221 504 250 707 b 524 689 456 707 489 700 l 524 736 b 431 754 494 747 461 754 z "},"ř":{"ha":546,"x_min":0,"x_max":0,"o":"m 353 882 l 506 1061 l 461 1061 l 329 922 l 197 1061 l 153 1061 l 304 882 z m 431 754 b 217 542 313 754 242 671 l 214 740 l 167 740 l 167 0 l 221 0 l 221 346 b 419 707 221 504 250 707 b 524 689 456 707 489 700 l 524 736 b 431 754 494 747 461 754 z "},"ŗ":{"ha":546,"x_min":0,"x_max":0,"o":"m 431 754 b 217 542 313 754 242 671 l 214 740 l 167 740 l 167 0 l 221 0 l 221 346 b 419 707 221 504 250 707 b 524 689 456 707 489 700 l 524 736 b 431 754 494 747 461 754 z m 257 -251 l 282 -251 l 264 -372 l 288 -372 l 317 -243 l 317 -93 l 258 -93 z "},"s":{"ha":707,"x_min":0,"x_max":0,"o":"m 360 -14 b 626 182 531 -14 626 57 b 367 403 626 339 493 369 b 150 563 224 439 150 458 b 343 710 150 661 222 710 b 550 535 482 710 550 649 l 606 535 b 344 753 606 676 517 753 b 94 557 182 753 94 681 b 339 360 94 421 206 392 b 574 178 483 325 574 294 b 363 29 574 85 500 29 b 131 235 200 29 131 94 l 75 235 b 360 -14 75 65 163 -14 z "},"ś":{"ha":707,"x_min":0,"x_max":0,"o":"m 290 882 l 335 882 l 496 1056 l 436 1056 z m 360 -14 b 626 182 531 -14 626 57 b 367 403 626 339 493 369 b 150 563 224 439 150 458 b 343 710 150 661 222 710 b 550 535 482 710 550 649 l 606 535 b 344 753 606 676 517 753 b 94 557 182 753 94 681 b 339 360 94 421 206 392 b 574 178 483 325 574 294 b 363 29 574 85 500 29 b 131 235 200 29 131 94 l 75 235 b 360 -14 75 65 163 -14 z "},"š":{"ha":707,"x_min":0,"x_max":0,"o":"m 325 882 l 374 882 l 526 1061 l 482 1061 l 350 922 l 218 1061 l 174 1061 z m 360 -14 b 626 182 531 -14 626 57 b 367 403 626 339 493 369 b 150 563 224 439 150 458 b 343 710 150 661 222 710 b 550 535 482 710 550 649 l 606 535 b 344 753 606 676 517 753 b 94 557 182 753 94 681 b 339 360 94 421 206 392 b 574 178 483 325 574 294 b 363 29 574 85 500 29 b 131 235 200 29 131 94 l 75 235 b 360 -14 75 65 163 -14 z "},"ş":{"ha":707,"x_min":0,"x_max":0,"o":"m 360 -14 b 626 182 531 -14 626 57 b 367 403 626 339 493 369 b 150 563 224 439 150 458 b 343 710 150 661 222 710 b 550 535 482 710 550 649 l 606 535 b 344 753 606 676 517 753 b 94 557 182 753 94 681 b 339 360 94 421 206 392 b 574 178 483 325 574 294 b 363 29 574 85 500 29 b 131 235 200 29 131 94 l 75 235 b 324 -12 75 76 151 -3 l 289 -86 l 306 -100 b 424 -181 383 -106 424 -133 b 339 -246 424 -225 386 -246 b 219 -193 297 -246 250 -228 l 206 -222 b 336 -278 236 -258 288 -278 b 461 -178 401 -278 461 -247 b 329 -71 461 -117 414 -82 l 358 -14 z "},"ș":{"ha":707,"x_min":0,"x_max":0,"o":"m 360 -14 b 626 182 531 -14 626 57 b 367 403 626 339 493 369 b 150 563 224 439 150 458 b 343 710 150 661 222 710 b 550 535 482 710 550 649 l 606 535 b 344 753 606 676 517 753 b 94 557 182 753 94 681 b 339 360 94 421 206 392 b 574 178 483 325 574 294 b 363 29 574 85 500 29 b 131 235 200 29 131 94 l 75 235 b 360 -14 75 65 163 -14 z m 324 -372 l 347 -372 l 376 -243 l 376 -93 l 318 -93 l 317 -251 l 342 -251 z "},"ß":{"ha":807,"x_min":0,"x_max":0,"o":"m 446 553 b 617 865 446 650 617 701 b 397 1088 617 997 529 1088 b 169 833 260 1088 169 988 l 169 740 l 38 740 l 38 697 l 169 697 l 169 0 l 222 0 l 222 833 b 394 1040 222 957 292 1038 b 561 865 494 1040 561 971 b 392 550 561 711 392 668 b 711 183 392 354 711 386 b 544 32 711 85 644 32 b 379 64 497 32 433 44 l 379 19 b 544 -14 433 -1 497 -14 b 767 182 678 -14 767 64 b 446 553 767 422 446 403 z "},"t":{"ha":528,"x_min":0,"x_max":0,"o":"m 379 33 b 206 233 274 33 206 94 l 206 699 l 474 699 l 474 740 l 206 740 l 206 931 l 164 931 l 154 740 l 28 740 l 28 699 l 153 699 l 153 233 b 375 -14 153 64 233 -14 b 488 4 418 -14 464 -7 l 488 47 b 379 33 451 39 407 33 z "},"ŧ":{"ha":528,"x_min":0,"x_max":0,"o":"m 379 33 b 206 233 274 33 206 94 l 206 374 l 451 374 l 451 413 l 206 413 l 206 699 l 474 699 l 474 740 l 206 740 l 206 931 l 164 931 l 154 740 l 28 740 l 28 699 l 153 699 l 153 413 l 31 413 l 31 374 l 153 374 l 153 233 b 375 -14 153 64 233 -14 b 488 4 418 -14 464 -7 l 488 47 b 379 33 451 39 407 33 z "},"ť":{"ha":528,"x_min":0,"x_max":0,"o":"m 386 1060 l 336 1060 l 299 800 l 333 800 z m 379 33 b 206 233 274 33 206 94 l 206 699 l 474 699 l 474 740 l 206 740 l 206 931 l 164 931 l 154 740 l 28 740 l 28 699 l 153 699 l 153 233 b 375 -14 153 64 233 -14 b 488 4 418 -14 464 -7 l 488 47 b 379 33 451 39 407 33 z "},"ţ":{"ha":528,"x_min":0,"x_max":0,"o":"m 375 -14 b 488 4 418 -14 464 -7 l 488 47 b 379 33 451 39 407 33 b 206 233 274 33 206 94 l 206 699 l 474 699 l 474 740 l 206 740 l 206 931 l 164 931 l 154 740 l 28 740 l 28 699 l 153 699 l 153 233 b 289 -1 153 101 201 25 l 250 -86 l 267 -100 b 385 -181 344 -106 385 -133 b 300 -246 385 -225 347 -246 b 181 -193 258 -246 211 -228 l 167 -222 b 297 -278 197 -258 249 -278 b 422 -178 363 -278 422 -247 b 290 -71 422 -117 375 -82 l 321 -10 b 375 -14 338 -12 356 -14 z "},"ț":{"ha":528,"x_min":0,"x_max":0,"o":"m 379 33 b 206 233 274 33 206 94 l 206 699 l 474 699 l 474 740 l 206 740 l 206 931 l 164 931 l 154 740 l 28 740 l 28 699 l 153 699 l 153 233 b 375 -14 153 64 233 -14 b 488 4 418 -14 464 -7 l 488 47 b 379 33 451 39 407 33 z m 278 -251 l 303 -251 l 285 -372 l 308 -372 l 338 -243 l 338 -93 l 279 -93 z "},"u":{"ha":857,"x_min":0,"x_max":0,"o":"m 636 740 l 636 379 b 393 32 636 190 551 32 b 196 261 265 32 196 100 l 196 740 l 143 740 l 143 261 b 379 -14 143 71 225 -14 b 638 201 499 -14 599 65 l 643 0 l 689 0 l 689 740 z "},"ú":{"ha":857,"x_min":0,"x_max":0,"o":"m 561 1056 l 501 1056 l 356 882 l 400 882 z m 636 740 l 636 379 b 393 32 636 190 551 32 b 196 261 265 32 196 100 l 196 740 l 143 740 l 143 261 b 379 -14 143 71 225 -14 b 638 201 499 -14 599 65 l 643 0 l 689 0 l 689 740 z "},"ǔ":{"ha":857,"x_min":0,"x_max":0,"o":"m 439 882 l 592 1061 l 547 1061 l 415 922 l 283 1061 l 239 1061 l 390 882 z m 636 740 l 636 379 b 393 32 636 190 551 32 b 196 261 265 32 196 100 l 196 740 l 143 740 l 143 261 b 379 -14 143 71 225 -14 b 638 201 499 -14 599 65 l 643 0 l 689 0 l 689 740 z "},"û":{"ha":857,"x_min":0,"x_max":0,"o":"m 415 1019 l 547 882 l 592 882 l 439 1061 l 390 1061 l 239 882 l 283 882 z m 636 740 l 636 379 b 393 32 636 190 551 32 b 196 261 265 32 196 100 l 196 740 l 143 740 l 143 261 b 379 -14 143 71 225 -14 b 638 201 499 -14 599 65 l 643 0 l 689 0 l 689 740 z "},"ü":{"ha":857,"x_min":0,"x_max":0,"o":"m 322 1047 l 268 1047 l 268 889 l 322 889 z m 561 1047 l 506 1047 l 506 889 l 561 889 z m 636 740 l 636 379 b 393 32 636 190 551 32 b 196 261 265 32 196 100 l 196 740 l 143 740 l 143 261 b 379 -14 143 71 225 -14 b 638 201 499 -14 599 65 l 643 0 l 689 0 l 689 740 z "},"ù":{"ha":857,"x_min":0,"x_max":0,"o":"m 479 882 l 332 1056 l 274 1056 l 435 882 z m 636 740 l 636 379 b 393 32 636 190 551 32 b 196 261 265 32 196 100 l 196 740 l 143 740 l 143 261 b 379 -14 143 71 225 -14 b 638 201 499 -14 599 65 l 643 0 l 689 0 l 689 740 z "},"ű":{"ha":857,"x_min":0,"x_max":0,"o":"m 443 1056 l 383 1056 l 289 882 l 333 882 z m 488 882 l 597 1056 l 538 1056 l 443 882 z m 636 740 l 636 379 b 393 32 636 190 551 32 b 196 261 265 32 196 100 l 196 740 l 143 740 l 143 261 b 379 -14 143 71 225 -14 b 638 201 499 -14 599 65 l 643 0 l 689 0 l 689 740 z "},"ū":{"ha":857,"x_min":0,"x_max":0,"o":"m 613 988 l 215 988 l 215 949 l 613 949 z m 636 740 l 636 379 b 393 32 636 190 551 32 b 196 261 265 32 196 100 l 196 740 l 143 740 l 143 261 b 379 -14 143 71 225 -14 b 638 201 499 -14 599 65 l 643 0 l 689 0 l 689 740 z "},"ų":{"ha":857,"x_min":0,"x_max":0,"o":"m 610 -217 b 524 -146 558 -217 524 -190 b 689 0 524 -76 590 -18 l 689 740 l 636 740 l 636 379 b 393 32 636 190 551 32 b 196 261 265 32 196 100 l 196 740 l 143 740 l 143 261 b 379 -14 143 71 225 -14 b 638 201 499 -14 599 65 l 643 13 b 485 -149 546 -11 485 -72 b 604 -251 485 -212 535 -251 b 714 -217 642 -251 685 -239 l 714 -187 b 610 -217 685 -206 644 -217 z "},"ů":{"ha":857,"x_min":0,"x_max":0,"o":"m 415 819 b 558 963 503 819 558 876 b 415 1106 558 1050 503 1106 b 271 963 328 1106 271 1050 b 415 819 271 876 328 819 z m 415 1076 b 525 963 481 1076 525 1031 b 415 850 525 894 481 851 b 304 963 349 851 304 894 b 415 1076 304 1031 349 1076 z m 636 740 l 636 379 b 393 32 636 190 551 32 b 196 261 265 32 196 100 l 196 740 l 143 740 l 143 261 b 379 -14 143 71 225 -14 b 638 201 499 -14 599 65 l 643 0 l 689 0 l 689 740 z "},"v":{"ha":783,"x_min":0,"x_max":0,"o":"m 361 0 l 426 0 l 713 740 l 657 740 l 394 46 l 128 740 l 72 740 z "},"w":{"ha":1151,"x_min":0,"x_max":0,"o":"m 301 0 l 368 0 l 581 672 l 789 0 l 856 0 l 1079 740 l 1025 740 l 824 46 l 608 740 l 553 740 l 336 46 l 129 740 l 72 740 z "},"ẃ":{"ha":1151,"x_min":0,"x_max":0,"o":"m 518 882 l 563 882 l 724 1056 l 664 1056 z m 301 0 l 368 0 l 581 672 l 789 0 l 856 0 l 1079 740 l 1025 740 l 824 46 l 608 740 l 553 740 l 336 46 l 129 740 l 72 740 z "},"ŵ":{"ha":1151,"x_min":0,"x_max":0,"o":"m 401 882 l 446 882 l 578 1019 l 710 882 l 754 882 l 601 1061 l 553 1061 z m 301 0 l 368 0 l 581 672 l 789 0 l 856 0 l 1079 740 l 1025 740 l 824 46 l 608 740 l 553 740 l 336 46 l 129 740 l 72 740 z "},"ẅ":{"ha":1151,"x_min":0,"x_max":0,"o":"m 431 889 l 485 889 l 485 1047 l 431 1047 z m 668 889 l 724 889 l 724 1047 l 668 1047 z m 301 0 l 368 0 l 581 672 l 789 0 l 856 0 l 1079 740 l 1025 740 l 824 46 l 608 740 l 553 740 l 336 46 l 129 740 l 72 740 z "},"ẁ":{"ha":1151,"x_min":0,"x_max":0,"o":"m 597 882 l 642 882 l 494 1056 l 436 1056 z m 301 0 l 368 0 l 581 672 l 789 0 l 856 0 l 1079 740 l 1025 740 l 824 46 l 608 740 l 553 740 l 336 46 l 129 740 l 72 740 z "},"x":{"ha":686,"x_min":0,"x_max":0,"o":"m 644 0 l 379 381 l 631 740 l 574 740 l 351 421 l 128 740 l 65 740 l 318 379 l 49 0 l 106 0 l 346 340 l 583 0 z "},"y":{"ha":774,"x_min":0,"x_max":0,"o":"m 267 -278 l 315 -278 l 701 740 l 646 740 l 390 46 l 132 740 l 72 740 l 365 -21 z "},"ý":{"ha":774,"x_min":0,"x_max":0,"o":"m 326 882 l 371 882 l 532 1056 l 472 1056 z m 267 -278 l 315 -278 l 701 740 l 646 740 l 390 46 l 132 740 l 72 740 l 365 -21 z "},"ŷ":{"ha":774,"x_min":0,"x_max":0,"o":"m 210 882 l 254 882 l 386 1019 l 518 882 l 563 882 l 410 1061 l 361 1061 z m 267 -278 l 315 -278 l 701 740 l 646 740 l 390 46 l 132 740 l 72 740 l 365 -21 z "},"ÿ":{"ha":774,"x_min":0,"x_max":0,"o":"m 240 889 l 294 889 l 294 1047 l 240 1047 z m 478 889 l 533 889 l 533 1047 l 478 1047 z m 267 -278 l 315 -278 l 701 740 l 646 740 l 390 46 l 132 740 l 72 740 l 365 -21 z "},"ỳ":{"ha":774,"x_min":0,"x_max":0,"o":"m 406 882 l 450 882 l 303 1056 l 244 1056 z m 267 -278 l 315 -278 l 701 740 l 646 740 l 390 46 l 132 740 l 72 740 l 365 -21 z "},"z":{"ha":668,"x_min":0,"x_max":0,"o":"m 111 42 l 603 708 l 603 740 l 58 740 l 58 699 l 538 699 l 47 33 l 47 0 l 621 0 l 621 42 z "},"ź":{"ha":668,"x_min":0,"x_max":0,"o":"m 483 1056 l 424 1056 l 278 882 l 322 882 z m 111 42 l 603 708 l 603 740 l 58 740 l 58 699 l 538 699 l 47 33 l 47 0 l 621 0 l 621 42 z "},"ž":{"ha":668,"x_min":0,"x_max":0,"o":"m 361 882 l 514 1061 l 469 1061 l 338 922 l 206 1061 l 161 1061 l 313 882 z m 111 42 l 603 708 l 603 740 l 58 740 l 58 699 l 538 699 l 47 33 l 47 0 l 621 0 l 621 42 z "},"ż":{"ha":668,"x_min":0,"x_max":0,"o":"m 365 1047 l 311 1047 l 311 889 l 365 889 z m 111 42 l 603 708 l 603 740 l 58 740 l 58 699 l 538 699 l 47 33 l 47 0 l 621 0 l 621 42 z "},"ﬁ":{"ha":874,"x_min":0,"x_max":0,"o":"m 169 865 l 169 740 l 38 740 l 38 697 l 169 697 l 169 0 l 222 0 l 222 697 l 460 697 l 460 740 l 222 740 l 222 865 b 379 1040 222 979 276 1040 b 506 1013 414 1040 458 1031 l 506 1060 b 378 1088 463 1078 418 1088 b 169 865 244 1088 169 1008 z m 651 1047 l 651 889 l 706 889 l 706 1047 z m 653 0 l 706 0 l 706 740 l 653 740 z "},"ﬂ":{"ha":867,"x_min":0,"x_max":0,"o":"m 169 865 l 169 740 l 38 740 l 38 697 l 169 697 l 169 0 l 222 0 l 222 697 l 460 697 l 460 740 l 222 740 l 222 865 b 379 1040 222 979 276 1040 b 506 1013 414 1040 458 1031 l 506 1060 b 378 1088 463 1078 418 1088 b 169 865 244 1088 169 1008 z m 649 1060 l 649 0 l 701 0 l 701 1060 z "},"ª":{"ha":494,"x_min":0,"x_max":0,"o":"m 442 497 b 422 651 429 542 422 592 l 422 815 b 246 1000 422 938 363 1000 b 69 839 143 1000 69 946 l 108 839 b 246 965 108 924 168 965 b 382 815 338 965 382 915 l 382 775 l 229 767 b 51 624 111 761 51 715 b 217 488 51 533 108 488 b 389 575 304 488 363 517 b 403 497 392 544 396 518 z m 219 524 b 93 625 135 524 93 558 b 229 738 93 693 139 733 l 382 746 l 382 614 b 219 524 365 556 310 524 z "},"º":{"ha":506,"x_min":0,"x_max":0,"o":"m 253 488 b 465 744 393 488 465 575 b 253 1000 465 914 393 1000 b 40 744 113 1000 40 914 b 253 488 40 575 113 488 z m 253 522 b 82 744 140 522 82 597 b 253 967 82 892 140 967 b 422 744 365 967 422 892 b 253 522 422 597 365 522 z "},"Δ":{"ha":885,"x_min":0,"x_max":0,"o":"m 69 0 l 815 0 l 815 39 l 476 986 l 407 986 l 69 39 z m 129 47 l 442 939 l 756 47 z "},"Ω":{"ha":1058,"x_min":0,"x_max":0,"o":"m 949 521 b 529 1000 949 838 806 1000 b 110 521 253 1000 110 838 b 374 42 110 282 200 121 l 110 42 l 110 0 l 436 0 l 436 51 b 169 521 258 125 169 276 b 529 949 169 806 290 949 b 889 521 768 949 889 806 b 622 51 889 276 800 125 l 622 0 l 949 0 l 949 42 l 685 42 b 949 521 858 121 949 282 z "},"μ":{"ha":850,"x_min":0,"x_max":0,"o":"m 718 0 b 690 282 699 79 690 174 l 690 740 l 636 740 l 636 379 b 393 32 636 190 551 32 b 196 261 265 32 196 100 l 196 740 l 143 740 l 143 -278 l 193 -278 l 181 97 b 383 -14 221 21 290 -14 b 642 219 504 -14 607 72 b 667 0 642 128 653 54 z "},"π":{"ha":814,"x_min":0,"x_max":0,"o":"m 157 0 l 211 0 l 239 697 l 593 697 l 593 335 b 622 0 593 229 603 94 l 679 0 b 644 335 658 83 644 218 l 644 697 l 775 697 l 775 740 l 40 740 l 40 697 l 186 697 z "},"¹":{"ha":397,"x_min":0,"x_max":0,"o":"m 203 1006 b 24 946 157 972 86 949 l 24 904 b 189 953 85 907 150 925 l 189 513 l 235 513 l 235 1006 z "},"²":{"ha":504,"x_min":0,"x_max":0,"o":"m 82 513 l 425 513 l 425 549 l 143 544 l 149 547 b 415 876 299 654 415 779 b 250 1014 415 965 358 1014 b 82 865 140 1014 82 963 l 129 865 b 250 976 129 939 172 976 b 368 874 328 976 368 942 b 82 540 368 778 243 658 z "},"³":{"ha":522,"x_min":0,"x_max":0,"o":"m 260 503 b 439 640 378 503 439 551 b 336 767 439 707 404 750 b 428 882 397 783 428 822 b 260 1014 428 967 369 1014 b 90 865 149 1014 90 963 l 138 865 b 260 976 138 939 179 976 b 381 879 339 976 381 943 b 260 781 381 813 339 781 l 197 781 l 197 749 l 260 749 b 390 643 346 749 390 714 b 261 540 390 576 347 540 b 126 657 172 540 126 581 l 79 657 b 260 503 79 556 139 503 z "},"⁴":{"ha":415,"x_min":0,"x_max":0,"o":"m 268 513 l 314 513 l 314 636 l 404 636 l 404 674 l 314 674 l 314 1008 l 269 1008 l 13 667 l 13 636 l 268 636 z m 64 674 l 268 949 l 268 674 z "},"⁄":{"ha":836,"x_min":0,"x_max":0,"o":"m 0 0 l 57 0 l 836 986 l 779 986 z "},"½":{"ha":1051,"x_min":0,"x_max":0,"o":"m 221 513 l 267 513 l 267 1006 l 235 1006 b 56 946 189 972 117 949 l 56 904 b 221 953 117 907 182 925 z m 839 986 l 60 0 l 117 0 l 894 986 z m 690 32 l 696 35 b 963 364 846 142 963 268 b 797 501 963 454 906 501 b 629 353 688 501 629 450 l 676 353 b 797 465 676 426 719 465 b 915 361 875 465 915 431 b 629 29 915 267 790 146 l 629 0 l 972 0 l 972 38 z "},"¼":{"ha":981,"x_min":0,"x_max":0,"o":"m 221 513 l 267 513 l 267 1006 l 235 1006 b 56 946 189 972 117 949 l 56 904 b 221 953 117 907 182 925 z m 839 986 l 60 0 l 117 0 l 894 986 z m 846 161 l 846 497 l 801 497 l 543 154 l 543 124 l 799 124 l 799 0 l 846 0 l 846 124 l 936 124 l 936 161 z m 799 161 l 594 161 l 799 436 z "},"¾":{"ha":1097,"x_min":0,"x_max":0,"o":"m 260 503 b 439 640 378 503 439 551 b 336 767 439 707 404 750 b 428 882 397 783 428 822 b 260 1014 428 967 369 1014 b 90 865 149 1014 90 963 l 138 865 b 260 976 138 939 179 976 b 381 879 339 976 381 943 b 260 781 381 813 339 781 l 197 781 l 197 749 l 260 749 b 390 643 346 749 390 714 b 261 540 390 576 347 540 b 126 657 172 540 126 581 l 79 657 b 260 503 79 556 139 503 z m 168 0 l 225 0 l 1003 986 l 947 986 z m 907 0 l 954 0 l 954 124 l 1043 124 l 1043 161 l 954 161 l 954 497 l 910 497 l 651 154 l 651 124 l 907 124 z m 703 161 l 907 436 l 907 161 z "},".":{"ha":369,"x_min":0,"x_max":0,"o":"m 153 0 l 217 0 l 217 143 l 153 143 z "},",":{"ha":369,"x_min":0,"x_max":0,"o":"m 133 -174 l 164 -174 l 217 4 l 217 163 l 153 163 l 153 0 l 171 0 z "},":":{"ha":369,"x_min":0,"x_max":0,"o":"m 153 597 l 217 597 l 217 740 l 153 740 z m 153 0 l 217 0 l 217 143 l 153 143 z "},";":{"ha":369,"x_min":0,"x_max":0,"o":"m 153 597 l 217 597 l 217 740 l 153 740 z m 138 -174 l 164 -174 l 217 4 l 217 143 l 153 143 l 153 0 l 175 0 z "},"…":{"ha":917,"x_min":0,"x_max":0,"o":"m 153 0 l 217 0 l 217 147 l 153 147 z m 426 0 l 490 0 l 490 147 l 426 147 z m 700 0 l 764 0 l 764 147 l 700 147 z "},"!":{"ha":389,"x_min":0,"x_max":0,"o":"m 175 288 l 214 288 l 224 740 l 224 986 l 165 986 l 165 740 z m 163 0 l 226 0 l 226 143 l 163 143 z "},"¡":{"ha":389,"x_min":0,"x_max":0,"o":"m 163 597 l 226 597 l 226 740 l 163 740 z m 165 -246 l 224 -246 l 224 0 l 214 453 l 175 453 l 165 0 z "},"?":{"ha":661,"x_min":0,"x_max":0,"o":"m 301 288 l 353 288 l 353 363 b 581 756 353 511 581 531 b 321 999 581 913 481 999 b 54 740 158 999 54 899 l 106 740 b 321 951 106 869 190 951 b 526 756 446 951 526 883 b 301 361 526 550 301 540 z m 294 0 l 357 0 l 357 143 l 294 143 z "},"¿":{"ha":661,"x_min":0,"x_max":0,"o":"m 304 597 l 368 597 l 368 740 l 304 740 z m 340 -258 b 608 0 504 -258 608 -158 l 556 0 b 340 -211 556 -129 471 -211 b 135 -19 215 -211 135 -146 b 360 379 135 188 360 197 l 360 453 l 310 453 l 310 378 b 82 -19 310 228 82 207 b 340 -258 82 -175 182 -258 z "},"·":{"ha":481,"x_min":0,"x_max":0,"o":"m 208 435 l 272 435 l 272 597 l 208 597 z "},"•":{"ha":607,"x_min":0,"x_max":0,"o":"m 208 436 l 397 436 l 397 621 l 208 621 z "},"*":{"ha":539,"x_min":0,"x_max":0,"o":"m 142 519 l 269 714 l 397 519 l 436 547 l 290 729 l 515 792 l 500 836 l 283 754 l 293 986 l 246 986 l 256 754 l 39 836 l 24 792 l 249 729 l 103 547 z "},"#":{"ha":825,"x_min":0,"x_max":0,"o":"m 797 571 l 806 617 l 619 617 l 663 875 l 615 875 l 572 617 l 318 617 l 361 875 l 314 875 l 271 617 l 81 617 l 72 571 l 264 571 l 219 300 l 26 300 l 19 256 l 211 256 l 169 0 l 217 0 l 258 256 l 513 256 l 471 0 l 518 0 l 560 256 l 744 256 l 753 300 l 568 300 l 613 571 z m 521 300 l 267 300 l 311 571 l 565 571 z "},"/":{"ha":593,"x_min":0,"x_max":0,"o":"m 24 -278 l 72 -278 l 569 1111 l 522 1111 z "},"\\":{"ha":593,"x_min":0,"x_max":0,"o":"m 522 -278 l 569 -278 l 72 1111 l 24 1111 z "},"(":{"ha":546,"x_min":0,"x_max":0,"o":"m 349 -139 l 390 -139 b 207 492 269 39 207 267 b 390 1111 207 717 268 939 l 349 1111 b 156 490 221 947 156 722 b 349 -139 156 260 221 29 z "},")":{"ha":546,"x_min":0,"x_max":0,"o":"m 156 -139 l 196 -139 b 390 490 324 29 390 260 b 196 1111 390 722 325 947 l 156 1111 b 339 492 276 939 339 717 b 156 -139 339 267 276 39 z "},"{":{"ha":585,"x_min":0,"x_max":0,"o":"m 364 -139 l 446 -139 l 446 -99 l 368 -99 b 253 26 299 -99 253 -49 b 271 349 253 125 271 242 b 176 486 271 413 232 469 b 271 624 232 503 271 560 b 253 947 271 731 253 849 b 368 1072 253 1022 299 1072 l 446 1072 l 446 1113 l 364 1113 b 203 947 268 1113 203 1046 b 222 624 203 836 222 736 b 103 501 222 553 172 501 l 103 471 b 222 349 172 471 222 419 b 203 26 222 236 203 138 b 364 -139 203 -72 268 -139 z "},"}":{"ha":585,"x_min":0,"x_max":0,"o":"m 139 -139 l 221 -139 b 382 26 318 -139 382 -72 b 363 349 382 138 363 236 b 482 471 363 419 413 471 l 482 501 b 363 624 413 501 363 553 b 382 947 363 736 382 836 b 221 1113 382 1046 318 1113 l 139 1113 l 139 1072 l 217 1072 b 333 947 286 1072 333 1022 b 314 624 333 849 314 731 b 410 486 314 560 354 503 b 314 349 354 469 314 413 b 333 26 314 242 333 125 b 217 -99 333 -49 286 -99 l 139 -99 z "},"[":{"ha":658,"x_min":0,"x_max":0,"o":"m 235 -139 l 550 -139 l 550 -99 l 285 -99 l 285 1071 l 550 1071 l 550 1111 l 235 1111 z "},"]":{"ha":658,"x_min":0,"x_max":0,"o":"m 110 -139 l 425 -139 l 425 1111 l 110 1111 l 110 1071 l 374 1071 l 374 -99 l 110 -99 z "},"-":{"ha":644,"x_min":0,"x_max":0,"o":"m 128 503 l 518 503 l 518 553 l 128 553 z "},"­":{"ha":833,"x_min":0,"x_max":0,"o":"m 128 503 l 518 503 l 518 553 l 128 553 z "},"–":{"ha":1031,"x_min":0,"x_max":0,"o":"m 128 481 l 903 482 l 903 531 l 128 529 z "},"—":{"ha":1218,"x_min":0,"x_max":0,"o":"m 128 481 l 1092 482 l 1092 531 l 128 529 z "},"_":{"ha":825,"x_min":0,"x_max":0,"o":"m 61 -157 l 764 -156 l 764 -115 l 61 -117 z "},"‚":{"ha":369,"x_min":0,"x_max":0,"o":"m 133 -174 l 164 -174 l 217 4 l 217 163 l 153 163 l 153 0 l 171 0 z "},"„":{"ha":619,"x_min":0,"x_max":0,"o":"m 133 -174 l 164 -174 l 217 4 l 217 163 l 153 163 l 153 0 l 171 0 z m 383 -174 l 414 -174 l 467 4 l 467 163 l 403 163 l 403 0 l 421 0 z "},"“":{"ha":535,"x_min":0,"x_max":0,"o":"m 153 743 l 217 743 l 217 886 l 194 886 l 232 1060 l 204 1060 l 153 882 z m 319 743 l 382 743 l 382 886 l 360 886 l 399 1060 l 371 1060 l 319 882 z "},"”":{"ha":535,"x_min":0,"x_max":0,"o":"m 138 743 l 164 743 l 217 921 l 217 1060 l 153 1060 l 153 917 l 175 917 z m 303 743 l 331 743 l 382 921 l 382 1060 l 319 1060 l 319 917 l 342 917 z "},"‘":{"ha":369,"x_min":0,"x_max":0,"o":"m 153 743 l 217 743 l 217 886 l 194 886 l 232 1060 l 204 1060 l 153 882 z "},"’":{"ha":369,"x_min":0,"x_max":0,"o":"m 138 743 l 164 743 l 217 921 l 217 1060 l 153 1060 l 153 917 l 175 917 z "},"«":{"ha":742,"x_min":0,"x_max":0,"o":"m 422 740 l 360 740 l 61 369 l 360 0 l 424 0 l 125 372 z m 383 372 l 679 740 l 618 740 l 319 369 l 618 0 l 682 0 z "},"»":{"ha":742,"x_min":0,"x_max":0,"o":"m 122 740 l 61 740 l 357 371 l 60 0 l 122 0 l 421 369 z m 381 740 l 319 740 l 617 371 l 318 0 l 381 0 l 679 369 z "},"‹":{"ha":483,"x_min":0,"x_max":0,"o":"m 125 372 l 422 740 l 360 740 l 61 369 l 360 0 l 424 0 z "},"›":{"ha":483,"x_min":0,"x_max":0,"o":"m 122 740 l 61 740 l 357 371 l 60 0 l 122 0 l 421 369 z "},"\"":{"ha":483,"x_min":0,"x_max":0,"o":"m 146 742 l 169 742 l 182 903 l 182 1060 l 133 1060 l 133 903 z m 314 742 l 338 742 l 351 903 l 351 1060 l 301 1060 l 301 903 z "},"'":{"ha":315,"x_min":0,"x_max":0,"o":"m 146 742 l 169 742 l 182 903 l 182 1060 l 133 1060 l 133 903 z "}," ":{"ha":397,"x_min":0,"x_max":0,"o":""},"¢":{"ha":769,"x_min":0,"x_max":0,"o":"m 694 365 l 642 365 b 421 158 621 236 546 165 l 421 850 b 638 643 544 843 617 774 l 690 643 b 421 893 668 803 582 888 l 421 1111 l 369 1111 l 369 892 b 86 504 172 879 86 747 b 369 117 86 261 172 129 l 369 -117 l 421 -117 l 421 115 b 694 365 582 121 669 206 z m 142 504 b 369 849 142 718 208 836 l 369 160 b 142 504 208 172 142 290 z "},"¤":{"ha":765,"x_min":0,"x_max":0,"o":"m 724 199 l 619 300 b 671 493 653 350 671 415 b 619 688 671 572 653 638 l 722 789 l 693 817 l 594 717 b 383 796 546 768 474 796 b 171 717 292 796 219 768 l 71 815 l 43 788 l 146 685 b 94 493 113 636 94 571 b 146 299 94 414 113 349 l 44 197 l 72 169 l 171 268 b 383 190 221 218 292 190 b 596 269 475 190 546 218 l 694 171 z m 383 233 b 147 493 231 233 147 328 b 383 753 147 658 231 753 b 618 493 535 753 618 658 b 383 233 618 328 535 233 z "},"$":{"ha":867,"x_min":0,"x_max":0,"o":"m 760 246 b 464 526 760 418 632 476 l 464 950 b 683 711 608 939 683 857 l 742 711 b 464 999 742 890 646 988 l 464 1111 l 408 1111 l 408 1000 b 118 749 217 994 118 908 b 408 489 118 590 243 538 l 408 36 b 146 311 236 44 146 139 l 90 311 b 408 -14 90 106 197 -4 l 408 -162 l 464 -162 l 464 -14 b 760 246 660 -6 760 82 z m 174 753 b 408 951 174 881 253 946 l 408 543 b 174 753 274 583 174 631 z m 464 35 l 464 472 b 704 243 601 431 704 378 b 464 35 704 113 622 42 z "},"€":{"ha":1029,"x_min":0,"x_max":0,"o":"m 878 311 b 536 42 844 132 731 42 b 176 382 335 42 207 163 l 643 383 l 650 432 l 172 431 b 169 493 171 451 169 472 b 172 563 169 517 171 540 l 674 564 l 679 613 l 176 611 b 542 949 204 842 322 949 b 871 674 729 949 839 857 l 928 674 b 546 1000 893 889 764 1000 b 118 611 288 1000 149 874 l 26 611 l 21 563 l 114 563 b 111 493 113 540 111 517 b 114 431 111 472 113 451 l 6 431 l 0 382 l 118 382 b 539 -14 151 131 301 -14 b 935 311 765 -14 901 97 z "},"ƒ":{"ha":669,"x_min":0,"x_max":0,"o":"m 506 953 b 635 925 543 953 592 943 l 639 972 b 506 1000 596 990 549 1000 b 274 778 372 1000 289 921 l 261 657 l 131 657 l 126 614 l 256 614 l 197 65 b 4 -89 185 -50 133 -89 l 0 -135 b 250 58 160 -135 236 -76 l 310 614 l 576 614 l 581 657 l 314 657 l 326 769 b 506 953 339 892 399 953 z "},"£":{"ha":760,"x_min":0,"x_max":0,"o":"m 158 47 b 214 251 190 108 214 174 b 192 463 214 322 203 390 l 582 464 l 588 513 l 185 511 b 168 704 175 572 168 636 b 415 953 168 856 254 953 b 664 742 567 953 664 871 l 717 742 b 415 1000 717 897 597 1000 b 114 704 224 1000 114 882 b 132 511 114 636 122 572 l 11 511 l 8 463 l 139 463 b 163 251 151 390 163 322 b 93 32 163 168 133 100 l 93 0 l 722 0 l 722 47 z "},"¥":{"ha":840,"x_min":0,"x_max":0,"o":"m 815 986 l 757 986 l 424 439 l 89 986 l 24 986 l 256 611 l 83 611 l 83 561 l 286 561 l 367 431 l 83 431 l 83 382 l 394 382 l 394 0 l 450 0 l 450 382 l 757 382 l 757 432 l 478 432 l 557 563 l 757 563 l 757 613 l 588 613 z "},"+":{"ha":833,"x_min":0,"x_max":0,"o":"m 751 531 l 464 531 l 464 818 l 414 818 l 414 531 l 128 531 l 128 482 l 414 482 l 414 193 l 465 193 l 465 482 l 751 482 z "},"−":{"ha":879,"x_min":0,"x_max":0,"o":"m 128 482 l 751 482 l 751 531 l 128 531 z "},"×":{"ha":660,"x_min":0,"x_max":0,"o":"m 126 267 l 331 471 l 533 268 l 568 303 l 364 506 l 568 710 l 533 744 l 331 540 l 126 743 l 92 708 l 296 506 l 93 301 z "},"÷":{"ha":879,"x_min":0,"x_max":0,"o":"m 408 647 l 471 647 l 471 800 l 408 800 z m 128 482 l 751 482 l 751 531 l 128 531 z m 408 211 l 471 211 l 471 364 l 408 364 z "},"=":{"ha":957,"x_min":0,"x_max":0,"o":"m 128 614 l 829 614 l 829 664 l 128 664 z m 128 322 l 829 322 l 829 372 l 128 372 z "},"≠":{"ha":957,"x_min":0,"x_max":0,"o":"m 829 614 l 829 664 l 604 664 l 711 849 l 669 872 l 550 664 l 128 664 l 128 614 l 521 614 l 381 372 l 128 372 l 128 322 l 353 322 l 246 138 l 288 113 l 408 322 l 829 322 l 829 372 l 438 372 l 576 614 z "},">":{"ha":696,"x_min":0,"x_max":0,"o":"m 79 817 l 79 761 l 572 493 l 79 226 l 79 169 l 643 478 l 643 508 z "},"<":{"ha":696,"x_min":0,"x_max":0,"o":"m 615 817 l 51 508 l 51 478 l 615 169 l 615 226 l 119 494 l 615 763 z "},"≥":{"ha":696,"x_min":0,"x_max":0,"o":"m 79 838 l 79 781 l 572 514 l 79 246 l 79 189 l 643 497 l 643 528 z m 79 60 l 643 60 l 643 106 l 79 106 z "},"≤":{"ha":696,"x_min":0,"x_max":0,"o":"m 615 838 l 51 528 l 51 497 l 615 189 l 615 246 l 121 515 l 615 783 z m 51 60 l 615 60 l 615 106 l 51 106 z "},"±":{"ha":879,"x_min":0,"x_max":0,"o":"m 463 664 l 463 897 l 415 897 l 415 664 l 128 664 l 128 614 l 417 614 l 417 379 l 464 379 l 464 614 l 751 614 l 751 664 z m 128 182 l 751 183 l 751 232 l 128 231 z "},"≈":{"ha":910,"x_min":0,"x_max":0,"o":"m 117 560 l 165 560 b 297 682 179 633 232 682 b 621 550 417 682 481 550 b 793 718 711 550 781 617 l 747 718 b 624 596 735 644 685 596 b 299 728 506 596 439 728 b 117 560 204 728 132 661 z m 117 286 l 165 286 b 297 408 179 360 232 408 b 621 276 417 408 481 276 b 793 444 711 276 781 343 l 747 444 b 624 322 735 371 685 322 b 299 454 506 322 439 454 b 117 286 204 454 132 388 z "},"~":{"ha":910,"x_min":0,"x_max":0,"o":"m 117 424 l 165 424 b 297 546 179 497 232 546 b 621 414 417 546 481 414 b 793 581 711 414 781 479 l 747 581 b 624 458 735 507 685 458 b 299 590 506 458 439 590 b 117 424 204 590 132 525 z "},"¬":{"ha":985,"x_min":0,"x_max":0,"o":"m 814 331 l 858 331 l 857 664 l 128 664 l 128 614 l 813 614 z "},"∞":{"ha":1075,"x_min":0,"x_max":0,"o":"m 768 701 b 972 496 894 701 972 622 b 768 290 972 369 894 290 b 538 467 682 290 607 350 b 306 290 463 350 388 290 b 103 496 181 290 103 369 b 306 701 103 622 181 701 b 538 525 390 701 467 642 b 768 701 607 642 682 701 z m 307 333 b 506 496 378 333 440 392 b 307 658 443 603 381 658 b 153 496 213 658 153 596 b 307 333 153 396 213 333 z m 767 333 b 922 496 863 333 922 396 b 767 658 922 596 863 658 b 568 496 692 658 631 603 b 767 333 632 389 696 333 z "},"∫":{"ha":775,"x_min":0,"x_max":0,"o":"m 117 -228 b 368 14 250 -228 351 -131 l 463 842 b 664 1064 478 981 543 1064 b 775 1038 696 1064 747 1053 l 775 1085 b 660 1111 751 1100 701 1111 b 408 846 511 1111 426 1008 l 314 14 b 117 -181 300 -103 221 -181 b 0 -167 76 -181 32 -176 l 0 -215 b 117 -228 25 -224 71 -228 z "},"∏":{"ha":918,"x_min":0,"x_max":0,"o":"m 182 -175 l 236 -175 l 236 940 l 683 940 l 683 -175 l 738 -175 l 738 940 l 907 940 l 907 986 l 13 986 l 13 940 l 182 940 z "},"∑":{"ha":742,"x_min":0,"x_max":0,"o":"m 24 -175 l 704 -175 l 704 -128 l 93 -128 l 454 400 l 454 411 l 93 940 l 704 940 l 704 986 l 24 986 l 24 947 l 397 406 l 24 -136 z "},"√":{"ha":811,"x_min":0,"x_max":0,"o":"m 375 -14 l 432 -14 l 818 1111 l 764 1111 l 404 53 l 213 531 l 22 531 l 22 482 l 176 482 z "},"µ":{"ha":850,"x_min":0,"x_max":0,"o":"m 718 0 b 690 282 699 79 690 174 l 690 740 l 636 740 l 636 379 b 393 32 636 190 551 32 b 196 261 265 32 196 100 l 196 740 l 143 740 l 143 -278 l 193 -278 l 181 97 b 383 -14 221 21 290 -14 b 642 219 504 -14 607 72 b 667 0 642 128 653 54 z "},"∂":{"ha":786,"x_min":0,"x_max":0,"o":"m 393 1000 b 186 950 319 1000 239 981 l 186 899 b 383 951 244 931 314 951 b 639 619 547 951 639 825 b 632 482 639 572 636 526 b 386 629 589 575 500 629 b 50 250 178 629 50 485 b 304 -14 50 86 147 -14 b 693 618 546 -14 693 235 b 393 1000 693 856 583 1000 z m 306 35 b 107 256 182 35 107 118 b 389 581 107 457 214 581 b 622 413 503 581 589 518 b 306 35 583 199 482 35 z "},"%":{"ha":1024,"x_min":0,"x_max":0,"o":"m 261 493 b 436 747 383 493 436 571 b 261 1000 436 922 383 1000 b 86 747 140 1000 86 922 b 261 493 86 571 140 493 z m 94 0 l 151 0 l 931 986 l 874 986 z m 261 531 b 129 747 167 531 129 594 b 261 963 129 899 167 963 b 393 747 356 963 393 899 b 261 531 393 594 356 531 z m 763 -14 b 939 240 886 -14 939 64 b 763 493 939 415 886 493 b 588 240 642 493 588 415 b 763 -14 588 64 642 -14 z m 763 24 b 631 240 669 24 631 88 b 763 456 631 392 669 456 b 896 240 857 456 896 392 b 763 24 896 88 857 24 z "},"‰":{"ha":1481,"x_min":0,"x_max":0,"o":"m 271 493 b 457 747 400 493 457 571 b 271 1000 457 922 400 1000 b 86 747 143 1000 86 922 b 271 493 86 571 143 493 z m 104 0 l 161 0 l 940 986 l 883 986 z m 271 531 b 129 747 171 531 129 594 b 271 963 129 899 171 963 b 414 747 372 963 414 899 b 271 531 414 594 372 531 z m 774 -14 b 958 240 903 -14 958 64 b 774 493 958 415 903 493 b 588 240 644 493 588 415 b 774 -14 588 64 644 -14 z m 1210 -14 b 1396 240 1339 -14 1396 64 b 1210 493 1396 415 1339 493 b 1024 240 1081 493 1024 415 b 1210 -14 1024 64 1081 -14 z m 774 24 b 631 240 672 24 631 88 b 774 456 631 392 672 456 b 915 240 875 456 915 392 b 774 24 915 88 875 24 z m 1210 24 b 1067 240 1108 24 1067 88 b 1210 456 1067 392 1108 456 b 1351 240 1311 456 1351 392 b 1210 24 1351 88 1311 24 z "},"◊":{"ha":782,"x_min":0,"x_max":0,"o":"m 414 1000 l 368 1000 l 82 457 l 368 -86 l 414 -86 l 700 457 z m 392 -31 l 138 461 l 390 943 l 646 458 z "},"@":{"ha":1181,"x_min":0,"x_max":0,"o":"m 629 -153 b 1019 -28 782 -153 908 -112 l 1001 -1 b 633 -112 889 -79 775 -112 b 151 358 300 -112 151 50 b 613 868 151 683 318 868 b 1031 463 881 868 1031 721 b 872 163 1031 269 990 163 b 764 292 806 163 754 211 l 808 639 l 772 639 l 756 539 b 610 644 740 603 686 644 b 386 324 460 644 386 544 b 560 125 386 189 443 125 b 729 232 657 125 703 165 b 868 122 732 175 789 122 b 1078 463 1018 122 1078 244 b 613 908 1078 749 910 908 b 103 358 286 908 103 711 b 629 -153 103 22 267 -153 z m 564 168 b 432 324 474 168 432 218 b 606 603 432 515 488 603 b 735 438 692 603 750 547 l 721 332 b 564 168 706 210 650 168 z "},"&":{"ha":861,"x_min":0,"x_max":0,"o":"m 876 0 l 707 169 b 789 499 760 256 789 367 l 738 499 b 669 207 738 383 713 283 l 318 557 b 206 778 239 636 206 704 b 403 951 206 889 288 951 b 611 711 536 951 611 865 l 664 711 b 403 1000 664 896 569 1000 b 149 776 250 1000 149 915 b 253 550 149 700 178 631 b 58 257 118 488 58 397 b 386 -12 58 85 186 -12 b 676 126 506 -12 606 38 l 803 0 z m 386 36 b 117 257 224 36 117 115 b 288 514 117 381 168 457 l 640 163 b 386 36 579 82 492 36 z "},"¶":{"ha":767,"x_min":0,"x_max":0,"o":"m 29 713 b 317 436 29 546 144 436 l 317 -175 l 364 -175 l 364 946 l 538 946 l 538 -175 l 583 -175 l 583 986 l 317 986 b 29 713 144 986 29 876 z "},"§":{"ha":833,"x_min":0,"x_max":0,"o":"m 704 253 l 760 253 b 436 546 760 451 592 501 b 174 753 301 585 174 621 b 426 951 174 885 258 951 b 683 711 596 951 683 869 l 742 711 b 428 1000 742 901 633 1000 b 118 749 224 1000 118 914 b 418 496 118 583 269 539 b 704 253 563 454 704 411 z m 436 -278 b 760 -18 650 -278 760 -189 b 449 261 760 172 601 218 b 174 490 308 300 174 339 l 118 490 b 426 211 118 300 275 256 b 704 -21 567 172 704 133 b 438 -229 704 -158 613 -229 b 146 47 246 -229 146 -135 l 90 47 b 436 -278 90 -167 207 -278 z "},"©":{"ha":1190,"x_min":0,"x_max":0,"o":"m 594 -14 b 1083 493 888 -14 1083 189 b 594 1000 1083 797 888 1000 b 107 493 303 1000 107 797 b 594 -14 107 189 303 -14 z m 594 14 b 140 493 322 14 140 206 b 594 972 140 781 322 972 b 1050 493 867 972 1050 781 b 594 14 1050 206 867 14 z m 600 199 b 818 386 722 199 799 264 l 775 386 b 599 235 758 289 696 235 b 407 490 475 235 407 325 b 599 744 407 654 475 744 b 772 594 693 744 757 692 l 815 594 b 600 782 797 715 722 782 b 363 490 446 782 363 678 b 600 199 363 301 446 199 z "},"®":{"ha":707,"x_min":0,"x_max":0,"o":"m 354 1000 b 44 682 160 1000 44 878 b 354 364 44 486 160 364 b 663 682 547 364 663 486 b 354 1000 663 878 547 1000 z m 354 392 b 78 682 179 392 78 503 b 354 972 78 861 179 972 b 629 682 528 972 629 861 b 354 392 629 503 528 392 z m 488 768 b 356 879 488 844 446 879 l 244 879 l 244 485 l 274 485 l 274 654 l 356 654 l 371 654 l 479 485 l 511 485 l 401 658 b 488 768 460 669 488 704 z m 354 681 l 274 681 l 274 854 l 354 854 b 457 768 425 854 457 828 b 354 681 457 707 425 681 z "},"™":{"ha":907,"x_min":0,"x_max":0,"o":"m 143 556 l 178 556 l 178 957 l 322 957 l 322 986 l 0 986 l 0 957 l 143 957 z m 376 556 l 408 556 l 450 933 l 583 556 l 625 556 l 757 933 l 799 556 l 832 556 l 788 986 l 740 986 l 604 596 l 468 986 l 419 986 z "},"°":{"ha":500,"x_min":0,"x_max":0,"o":"m 250 606 b 446 804 368 606 446 685 b 250 1000 446 922 368 1000 b 54 804 132 1000 54 922 b 250 606 54 685 132 606 z m 250 644 b 97 804 157 644 97 708 b 250 961 97 900 157 961 b 403 804 343 961 403 900 b 250 644 403 708 343 644 z "},"|":{"ha":411,"x_min":0,"x_max":0,"o":"m 183 -278 l 229 -278 l 229 1111 l 183 1111 z "},"¦":{"ha":408,"x_min":0,"x_max":0,"o":"m 183 536 l 225 536 l 225 1111 l 183 1111 z m 183 -278 l 225 -278 l 225 306 l 183 306 z "},"†":{"ha":682,"x_min":0,"x_max":0,"o":"m 657 738 l 365 738 l 365 1060 l 315 1060 l 315 738 l 24 738 l 24 693 l 315 693 l 315 -175 l 365 -175 l 365 693 l 657 693 z "},"‡":{"ha":682,"x_min":0,"x_max":0,"o":"m 657 693 l 657 738 l 365 738 l 365 1060 l 315 1060 l 315 738 l 24 738 l 24 693 l 315 693 l 315 206 l 24 206 l 24 161 l 315 161 l 315 -175 l 365 -175 l 365 161 l 657 161 l 657 206 l 365 206 l 365 693 z "},"^":{"ha":711,"x_min":0,"x_max":0,"o":"m 69 514 l 124 514 l 356 940 l 589 514 l 642 514 l 374 1000 l 338 1000 z "},"̈":{"ha":0,"x_min":0,"x_max":0,"o":"m -461 889 l -407 889 l -407 1047 l -461 1047 z m -224 889 l -168 889 l -168 1047 l -224 1047 z "},"̇":{"ha":0,"x_min":0,"x_max":0,"o":"m -224 889 l -169 889 l -169 1047 l -224 1047 z "},"̀":{"ha":0,"x_min":0,"x_max":0,"o":"m -214 882 l -169 882 l -317 1056 l -375 1056 z "},"́":{"ha":0,"x_min":0,"x_max":0,"o":"m -375 882 l -331 882 l -169 1056 l -229 1056 z "},"̋":{"ha":0,"x_min":0,"x_max":0,"o":"m -478 882 l -433 882 l -324 1056 l -383 1056 z m -324 882 l -279 882 l -169 1056 l -229 1056 z "},"̂":{"ha":0,"x_min":0,"x_max":0,"o":"m -521 882 l -476 882 l -344 1019 l -212 882 l -168 882 l -321 1061 l -369 1061 z "},"̌":{"ha":0,"x_min":0,"x_max":0,"o":"m -369 882 l -321 882 l -168 1061 l -212 1061 l -344 922 l -476 1061 l -521 1061 z "},"̆":{"ha":0,"x_min":0,"x_max":0,"o":"m -344 876 b -168 1056 -235 876 -168 943 l -210 1056 b -344 918 -210 969 -261 918 b -479 1056 -428 918 -479 969 l -521 1056 b -344 876 -521 943 -456 876 z "},"̊":{"ha":0,"x_min":0,"x_max":0,"o":"m -312 819 b -169 963 -225 819 -169 876 b -312 1106 -169 1050 -225 1106 b -457 963 -400 1106 -457 1050 b -312 819 -457 876 -400 819 z m -312 850 b -424 963 -379 851 -424 894 b -312 1076 -424 1031 -379 1076 b -203 963 -247 1076 -203 1031 b -312 850 -203 894 -247 851 z "},"̃":{"ha":0,"x_min":0,"x_max":0,"o":"m -540 922 b -465 978 -535 954 -503 978 b -282 922 -399 978 -357 922 b -169 1017 -224 922 -178 958 l -200 1017 b -274 960 -207 983 -236 960 b -458 1017 -340 960 -383 1017 b -571 922 -518 1017 -564 979 z "},"̄":{"ha":0,"x_min":0,"x_max":0,"o":"m -567 949 l -169 949 l -169 988 l -567 988 z "},"̒":{"ha":0,"x_min":0,"x_max":0,"o":"m -229 889 l -171 889 l -169 1047 l -194 1047 l -178 1168 l -201 1168 l -229 1039 z "},"̦":{"ha":0,"x_min":0,"x_max":0,"o":"m -222 -372 l -199 -372 l -169 -243 l -169 -93 l -228 -93 l -229 -251 l -204 -251 z "},"̧":{"ha":0,"x_min":0,"x_max":0,"o":"m -300 -71 l -264 0 l -300 0 l -340 -86 l -324 -100 b -206 -181 -246 -106 -206 -133 b -290 -246 -206 -225 -243 -246 b -410 -193 -332 -246 -379 -228 l -424 -222 b -293 -278 -393 -258 -342 -278 b -168 -178 -228 -278 -168 -247 b -300 -71 -168 -117 -215 -82 z "},"̨":{"ha":0,"x_min":0,"x_max":0,"o":"m -279 -251 b -169 -217 -242 -251 -199 -239 l -169 -187 b -274 -217 -199 -206 -239 -217 b -360 -146 -325 -217 -360 -190 b -194 0 -360 -76 -293 -18 l -207 19 b -399 -149 -322 3 -399 -64 b -279 -251 -399 -212 -349 -251 z "},"̵":{"ha":0,"x_min":0,"x_max":0,"o":"m -701 401 l -169 401 l -169 440 l -701 440 z "},"̶":{"ha":0,"x_min":0,"x_max":0,"o":"m -1169 401 l -169 401 l -169 440 l -1169 440 z "},"̷":{"ha":0,"x_min":0,"x_max":0,"o":"m -596 289 l -168 467 l -168 507 l -596 329 z "},"̸":{"ha":0,"x_min":0,"x_max":0,"o":"m -907 -56 l -862 -56 l -168 1042 l -212 1042 z "},"´":{"ha":833,"x_min":0,"x_max":0,"o":"m 169 882 l 214 882 l 375 1056 l 315 1056 z "},"˘":{"ha":833,"x_min":0,"x_max":0,"o":"m 346 876 b 522 1056 456 876 522 943 l 481 1056 b 346 918 481 969 429 918 b 211 1056 263 918 211 969 l 169 1056 b 346 876 169 943 235 876 z "},"ˇ":{"ha":833,"x_min":0,"x_max":0,"o":"m 321 882 l 369 882 l 522 1061 l 478 1061 l 346 922 l 214 1061 l 169 1061 z "},"¸":{"ha":833,"x_min":0,"x_max":0,"o":"m 293 -71 l 329 0 l 293 0 l 253 -86 l 269 -100 b 388 -181 347 -106 388 -133 b 303 -246 388 -225 350 -246 b 183 -193 261 -246 214 -228 l 169 -222 b 300 -278 200 -258 251 -278 b 425 -178 365 -278 425 -247 b 293 -71 425 -117 378 -82 z "},"ˆ":{"ha":833,"x_min":0,"x_max":0,"o":"m 169 882 l 214 882 l 346 1019 l 478 882 l 522 882 l 369 1061 l 321 1061 z "},"¨":{"ha":833,"x_min":0,"x_max":0,"o":"m 169 889 l 224 889 l 224 1047 l 169 1047 z m 407 889 l 463 889 l 463 1047 l 407 1047 z "},"˙":{"ha":833,"x_min":0,"x_max":0,"o":"m 169 889 l 224 889 l 224 1047 l 169 1047 z "},"`":{"ha":833,"x_min":0,"x_max":0,"o":"m 331 882 l 375 882 l 228 1056 l 169 1056 z "},"˝":{"ha":833,"x_min":0,"x_max":0,"o":"m 169 882 l 214 882 l 324 1056 l 264 1056 z m 324 882 l 368 882 l 478 1056 l 418 1056 z "},"¯":{"ha":833,"x_min":0,"x_max":0,"o":"m 169 949 l 567 949 l 567 988 l 169 988 z "},"˛":{"ha":833,"x_min":0,"x_max":0,"o":"m 289 -251 b 399 -217 326 -251 369 -239 l 399 -187 b 294 -217 369 -206 329 -217 b 208 -146 243 -217 208 -190 b 374 0 208 -76 275 -18 l 361 19 b 169 -149 246 3 169 -64 b 289 -251 169 -212 219 -251 z "},"˚":{"ha":833,"x_min":0,"x_max":0,"o":"m 314 819 b 457 963 401 819 457 876 b 314 1106 457 1050 401 1106 b 169 963 226 1106 169 1050 b 314 819 169 876 226 819 z m 314 850 b 203 963 247 851 203 894 b 314 1076 203 1031 247 1076 b 424 963 379 1076 424 1031 b 314 850 424 894 379 851 z "},"˜":{"ha":833,"x_min":0,"x_max":0,"o":"m 200 922 b 275 978 206 954 238 978 b 458 922 342 978 383 922 b 571 1017 517 922 563 958 l 540 1017 b 467 960 533 983 504 960 b 282 1017 400 960 357 1017 b 169 922 222 1017 176 979 z "}}}
